<svg width="200" height="100" viewBox="0 0 200 100" fill="none" xmlns="http://www.w3.org/2000/svg">
<path d="M27.2998 69.5C38.0694 69.5 46.7998 60.7696 46.7998 50C46.7998 39.2304 38.0694 30.5 27.2998 30.5C16.5303 30.5 7.7998 39.2304 7.7998 50C7.7998 60.7696 16.5303 69.5 27.2998 69.5Z" fill="#F16822"/>
<path d="M27.2998 32.7C19.2998 32.7 12.7998 39.2 12.7998 47.2C12.7998 52.4 15.4998 57 19.5998 59.5L21.9998 55.9C19.0998 54.1 17.0998 50.9 17.0998 47.2C17.0998 41.6 21.6998 37 27.2998 37C32.8998 37 37.4998 41.6 37.4998 47.2C37.4998 52.1 34.0998 56.2 29.4998 57.2V51.2H25.1998V57.2V61.6V67.4H29.4998V61.6C36.4998 60.6 41.8998 54.5 41.8998 47.2C41.8998 39.2 35.3998 32.7 27.2998 32.7Z" fill="white"/>
<path d="M75.6 57.4C76.8 58.2 77.9 58.9 79 59.2L78.2 61C76.8 60.5 75.4 59.7 73.9 58.6C72.4 59.4 70.8 59.8 69 59.8C67.2 59.8 65.6 59.4 64.1 58.5C62.6 57.6 61.5 56.4 60.7 54.8C59.9 53.2 59.5 51.5 59.5 49.5C59.5 47.5 59.9 45.8 60.7 44.2C61.5 42.6 62.6 41.4 64.1 40.5C65.6 39.7 67.2 39.2 69 39.2C70.8 39.2 72.5 39.6 73.9 40.5C75.4 41.4 76.5 42.6 77.3 44.2C78.1 45.8 78.5 47.5 78.5 49.5C78.5 51.1 78.3 52.6 77.8 53.9C77.4 55.3 76.6 56.4 75.6 57.4ZM69.9 54C71.4 54.4 72.7 55.1 73.6 55.9C75.1 54.5 75.9 52.4 75.9 49.6C75.9 48 75.6 46.6 75.1 45.4C74.6 44.2 73.8 43.3 72.7 42.6C71.6 41.9 70.5 41.6 69.2 41.6C67.2 41.6 65.6 42.3 64.3 43.6C63 44.9 62.4 46.9 62.4 49.6C62.4 52.2 63 54.2 64.3 55.5C65.6 56.9 67.2 57.6 69.2 57.6C70.1 57.6 71 57.4 71.8 57.1C71 56.6 70.1 56.2 69.2 56L69.9 54Z" fill="#58595B"/>
<path d="M95.2002 39.7H97.8002V51.2C97.8002 53.2 97.6002 54.8 97.1002 55.9C96.6002 57.1 95.8002 58 94.7002 58.8C93.5002 59.5 92.0002 59.9 90.1002 59.9C88.2002 59.9 86.7002 59.6 85.5002 58.9C84.3002 58.3 83.5002 57.3 83.0002 56.1C82.5002 54.9 82.2002 53.2 82.2002 51.1V39.7H84.8002V51.1C84.8002 52.8 85.0002 54.1 85.3002 54.9C85.6002 55.7 86.2002 56.3 86.9002 56.8C87.7002 57.2 88.6002 57.5 89.8002 57.5C91.7002 57.5 93.1002 57.1 93.9002 56.2C94.7002 55.3 95.1002 53.6 95.1002 51.2V39.7H95.2002Z" fill="#58595B"/>
<path d="M100 59.5L107.6 39.7H110.4L118.5 59.5H115.5L113.2 53.5H104.9L102.7 59.5H100ZM105.7 51.4H112.4L110.3 45.9C109.7 44.2 109.2 42.9 108.9 41.8C108.6 43.1 108.3 44.3 107.8 45.6L105.7 51.4Z" fill="#58595B"/>
<path d="M120.6 59.5V39.7H123.3L133.7 55.3V39.7H136.2V59.5H133.5L123.1 43.9V59.5H120.6Z" fill="#58595B"/>
<path d="M145.7 59.5V42H139.2V39.7H154.9V42H148.3V59.5H145.7Z" fill="#58595B"/>
<path d="M157.6 59.5V39.7H171.9V42H160.2V48.1H171.2V50.4H160.2V57.1H172.4V59.4H157.6V59.5Z" fill="#58595B"/>
<path d="M174 59.4999L181.7 49.1999L174.9 39.6999H178L181.6 44.7999C182.3 45.8999 182.9 46.6999 183.2 47.1999C183.6 46.4999 184.2 45.6999 184.8 44.8999L188.8 39.5999H191.7L184.7 48.8999L192.2 59.3999H189L184 52.2999C183.7 51.8999 183.4 51.4999 183.1 50.9999C182.7 51.6999 182.3 52.1999 182.2 52.4999L177.2 59.3999H174V59.4999Z" fill="#58595B"/>
</svg>
