<svg width="200" height="100" viewBox="0 0 200 100" fill="none" xmlns="http://www.w3.org/2000/svg">
<path d="M160.6 54.4999L159 51.5999H148L147.4 54.4999H145.6L147.5 45.3999H162.4C163.8 45.3999 164.4 46.0999 164.1 47.4999L163.7 49.3999C163.4 50.7999 162.5 51.5999 161.1 51.5999L162.7 54.4999H160.6ZM148.4 49.7999H161.2C161.4 49.7999 161.6 49.6999 161.8 49.5999C162 49.4999 162.1 49.2999 162.1 48.9999L162.3 47.9999C162.4 47.4999 162.2 47.2999 161.7 47.2999H149L148.4 49.7999ZM114.8 54.4999L116.3 47.2999H107.4L107.8 45.4999H127.7L127.3 47.2999H118.4L116.9 54.5999H114.8V54.4999ZM87.3998 54.4999L87.7998 52.6999H102.4C102.6 52.6999 102.8 52.6999 103 52.4999C103.2 52.3999 103.3 52.1999 103.3 51.9999L103.4 51.5999C103.5 51.0999 103.3 50.8999 102.8 50.8999H90.2998C88.8998 50.8999 88.2998 50.1999 88.5998 48.8999L88.7998 47.6999C89.0998 46.1999 89.9998 45.4999 91.3998 45.4999H106.4L106 47.2999H91.2998C91.0998 47.2999 90.8998 47.3999 90.6998 47.4999C90.4998 47.5999 90.3998 47.7999 90.3998 47.9999L90.2998 48.3999C90.1998 48.8999 90.3998 49.0999 90.7998 49.0999H103.2C104.6 49.0999 105.2 49.7999 104.9 51.1999L104.7 52.2999C104.4 53.7999 103.5 54.4999 102.1 54.4999H87.3998ZM43.1998 54.4999L41.5998 51.5999H30.5998L29.9998 54.4999H28.1998L30.0998 45.3999H44.9998C46.3998 45.3999 46.9998 46.0999 46.6998 47.4999L46.2998 49.3999C45.9998 50.7999 45.0998 51.5999 43.6998 51.5999L45.2998 54.4999H43.1998ZM30.9998 49.7999H43.7998C43.9998 49.7999 44.1998 49.6999 44.3998 49.5999C44.5998 49.4999 44.6998 49.2999 44.6998 48.9999L44.8998 47.9999C44.9998 47.4999 44.7998 47.2999 44.2998 47.2999H31.5998L30.9998 49.7999ZM11.5998 45.4999H26.5998C27.9998 45.4999 28.5998 46.1999 28.2998 47.6999L27.9998 48.6999C27.8998 48.9999 27.7998 49.3999 27.4998 49.5999C27.2998 49.7999 26.8998 49.9999 26.5998 49.9999C27.2998 50.0999 27.5998 50.4999 27.4998 51.1999L27.2998 52.2999C26.9998 53.6999 26.0998 54.4999 24.6998 54.4999H9.7998L11.5998 45.4999ZM11.8998 52.6999H24.6998C24.8998 52.6999 25.0998 52.5999 25.2998 52.4999C25.4998 52.3999 25.5998 52.1999 25.5998 51.9999L25.6998 51.5999C25.7998 51.0999 25.5998 50.8999 25.1998 50.8999H12.2998L11.8998 52.6999ZM12.6998 49.0999H25.4998C25.6998 49.0999 25.8998 48.9999 26.0998 48.8999C26.2998 48.7999 26.3998 48.5999 26.3998 48.2999L26.4998 47.8999C26.5998 47.3999 26.3998 47.1999 25.8998 47.1999H12.9998L12.6998 49.0999ZM186.6 54.4999L188 47.5999L177 51.5999L167.4 47.5999L166 54.4999H164.2L166.1 45.3999H167.9L177.5 49.3999L188.5 45.3999H190.3L188.4 54.4999H186.6ZM68.8998 54.4999L70.6998 45.3999H72.4998L84.5998 52.2999L85.9998 45.3999H87.7998L85.8998 54.3999H84.0998L72.0998 47.3999L70.6998 54.3999H68.8998V54.4999ZM127.6 52.3999L128.6 47.6999C128.9 46.2999 129.8 45.4999 131.2 45.4999H144C145.4 45.4999 146 46.1999 145.7 47.6999L144.7 52.3999C144.4 53.7999 143.6 54.4999 142.2 54.4999H129.4C127.9 54.4999 127.3 53.7999 127.6 52.3999ZM130.3 47.9999L129.5 51.9999C129.4 52.4999 129.6 52.6999 130.1 52.6999H142.2C142.4 52.6999 142.6 52.6999 142.8 52.4999C143 52.3999 143.1 52.1999 143.1 51.9999L143.9 47.9999C144 47.4999 143.8 47.1999 143.3 47.1999H131.2C131 47.1999 130.8 47.1999 130.6 47.3999C130.5 47.5999 130.4 47.7999 130.3 47.9999ZM61.9998 54.4999L62.5998 51.5999H49.1998L48.5998 54.4999H46.7998L48.1998 47.6999C48.4998 46.1999 49.3998 45.4999 50.7998 45.4999H63.5998C64.9998 45.4999 65.5998 46.2999 65.2998 47.7999L63.8998 54.5999H61.9998V54.4999ZM49.8998 47.9999L49.4998 49.7999H62.9998L63.3998 47.9999C63.4998 47.4999 63.2998 47.2999 62.7998 47.2999H50.7998C50.5998 47.2999 50.3998 47.3999 50.1998 47.4999C49.9998 47.5999 49.8998 47.7999 49.8998 47.9999ZM65.5998 54.4999L67.4998 45.4999H69.2998L67.3998 54.4999H65.5998Z" fill="#121313"/>
<path d="M8.3999 62.5L8.6999 60.7H190.2L189.9 62.5H8.3999Z" fill="#B22F1B"/>
</svg>
