<svg width="200" height="100" viewBox="0 0 200 100" fill="none" xmlns="http://www.w3.org/2000/svg">
<path d="M120.989 58.136C120.989 57.9534 120.989 57.8141 120.989 57.6747C120.989 52.1928 121.007 46.7108 120.978 41.2292C120.969 39.6693 122.146 38.8516 123.311 38.8783C125.843 38.9363 128.379 38.8888 130.913 38.8999C131.938 38.9044 132.942 39.0605 133.911 39.4167C136.165 40.246 136.99 42.0715 136.833 44.2423C136.718 45.8312 135.962 46.9944 134.464 47.7186C134.671 47.8162 134.828 47.8935 134.987 47.9643C136.711 48.7302 137.506 50.1004 137.562 51.9421C137.609 53.5041 137.28 54.9479 136.169 56.1232C135.227 57.1196 134.026 57.6465 132.709 57.8877C131.888 58.038 131.044 58.1174 130.209 58.1253C127.3 58.1531 124.391 58.136 121.482 58.136C121.34 58.136 121.199 58.136 120.989 58.136ZM125.088 54.6472C126.747 54.6472 128.372 54.6521 129.996 54.6435C130.369 54.6415 130.744 54.6115 131.114 54.562C132.205 54.4159 132.927 53.8718 133.089 52.944C133.184 52.4005 133.148 51.815 133.065 51.2645C132.963 50.5901 132.513 50.1106 131.864 49.9227C131.289 49.756 130.682 49.6347 130.086 49.619C128.499 49.5773 126.91 49.6031 125.321 49.6034C125.248 49.6034 125.174 49.6155 125.088 49.6232C125.088 51.296 125.088 52.9444 125.088 54.6472ZM125.101 42.3056C125.101 43.628 125.101 44.9761 125.101 46.3439C126.639 46.3439 128.149 46.3443 129.66 46.3432C129.841 46.3431 130.026 46.3578 130.201 46.3253C130.63 46.246 131.071 46.1885 131.477 46.0402C132.322 45.7319 132.714 45.0644 132.672 44.1254C132.632 43.2274 132.196 42.6786 131.308 42.4243C131.111 42.3679 130.904 42.3116 130.702 42.3107C128.844 42.302 126.987 42.3056 125.101 42.3056Z" fill="#526B80"/>
<path d="M173.172 58.1187C171.814 58.1187 170.501 58.1187 169.164 58.1187C169.157 57.9905 169.145 57.8781 169.145 57.7655C169.144 54.9344 169.116 52.103 169.161 49.2727C169.174 48.4185 169.308 47.5453 169.532 46.7201C169.966 45.1199 171.018 44.0118 172.587 43.47C174.82 42.6989 177.073 42.723 179.307 43.4837C179.704 43.619 180.059 43.877 180.442 44.0599C180.537 44.1051 180.697 44.1263 180.775 44.0768C182.005 43.296 183.373 43.0474 184.799 42.9984C185.076 42.9889 186.031 42.9735 186.236 43.0101C186.87 43.1236 187.521 43.1743 188.136 43.3526C190.547 44.0516 191.688 45.7548 191.939 48.1326C192.012 48.8244 192.013 49.5256 192.015 50.2227C192.023 52.7176 192.018 55.2125 192.018 57.7075C192.018 57.8593 192.018 58.011 192.018 58.2473C191.1 58.2029 190.22 58.2241 189.36 58.1009C188.461 57.9722 187.992 57.3179 187.991 56.4C187.988 53.9052 187.992 51.4102 187.986 48.9152C187.986 48.633 187.961 48.346 187.905 48.0696C187.745 47.2721 187.291 46.7151 186.497 46.4762C185.66 46.2242 184.818 46.2206 183.983 46.4869C183.186 46.7407 182.754 47.3082 182.638 48.1207C182.596 48.4137 182.578 48.7124 182.578 49.0086C182.573 51.8784 182.575 54.7483 182.575 57.6181C182.575 57.7723 182.575 57.9265 182.575 58.1083C181.256 58.1083 179.957 58.1083 178.603 58.1083C178.603 57.9674 178.603 57.8181 178.603 57.6689C178.603 54.7345 178.604 51.8 178.6 48.8656C178.599 48.609 178.573 48.3496 178.529 48.0966C178.363 47.1348 177.809 46.5209 176.854 46.358C176.301 46.2635 175.716 46.2288 175.161 46.2956C173.824 46.4563 173.177 47.2541 173.174 48.6582C173.168 51.6443 173.172 54.6306 173.172 57.6167C173.172 57.7708 173.172 57.9248 173.172 58.1187Z" fill="#526B80"/>
<path d="M74.6553 50.9366C73.8625 50.9366 73.1021 50.9304 72.3419 50.9389C71.8486 50.9443 71.3943 50.8343 70.9926 50.543C70.5045 50.1889 70.2215 49.706 70.1796 49.1077C70.1492 48.6725 70.1736 48.2335 70.1736 47.7685C72.9117 47.7685 75.6329 47.7685 78.3869 47.7685C78.3869 51.2032 78.3869 54.6457 78.3869 58.1211C77.6141 58.1372 76.852 58.2204 76.1312 57.8069C75.3555 57.3618 75.3257 56.5769 75.0871 55.775C75.0351 55.8614 74.993 55.9561 74.9293 56.0327C73.7381 57.4637 72.2261 58.2718 70.3575 58.409C67.92 58.588 65.6453 58.1432 63.668 56.6315C61.8412 55.235 60.803 53.336 60.3496 51.1127C59.8345 48.5875 59.9383 46.0924 60.9954 43.7115C62.3129 40.7439 64.6112 39.0256 67.8461 38.6628C70.2346 38.3948 72.5647 38.6495 74.7403 39.7734C76.6825 40.7768 77.7049 42.4252 78.0584 44.5363C78.0985 44.7764 78.1188 45.0198 78.1519 45.2928C78.0243 45.3058 77.9268 45.3241 77.8292 45.3244C77.0922 45.3268 76.3552 45.329 75.6183 45.3248C74.8014 45.32 74.1401 44.9663 73.7477 44.2717C72.6777 42.378 70.9774 41.8856 68.9727 42.0368C67.723 42.1311 66.6003 42.5392 65.7479 43.5096C65.0728 44.2783 64.7225 45.2003 64.5361 46.1926C64.2266 47.8401 64.2319 49.4854 64.6587 51.1092C65.2682 53.4286 67.0071 54.8261 69.4209 55.0411C72.1497 55.284 74.0444 53.6323 74.6084 51.2771C74.6316 51.1803 74.6362 51.079 74.6553 50.9366Z" fill="#526B80"/>
<path d="M139.569 47.0521C139.93 45.0595 141.045 43.7895 142.929 43.2904C145.228 42.6815 147.537 42.7535 149.786 43.5487C151.448 44.1362 152.341 45.3584 152.345 47.1326C152.352 50.7512 152.317 54.3697 152.299 57.9882C152.298 58.0391 152.287 58.0899 152.272 58.2105C151.255 58.1522 150.214 58.3913 149.233 57.9645C148.897 57.8186 148.634 57.5069 148.384 57.3078C147.686 57.5974 146.988 58.0459 146.237 58.1661C144.557 58.4351 142.853 58.6211 141.27 57.6547C139.696 56.6942 139.038 55.2893 139.109 53.4915C139.177 51.7437 139.967 50.4491 141.584 49.7486C142.287 49.444 143.041 49.2279 143.792 49.0733C144.814 48.8633 145.858 48.7691 146.886 48.5863C147.22 48.5268 147.557 48.3859 147.85 48.2113C148.653 47.7329 148.624 46.7977 147.789 46.3722C147.486 46.2179 147.129 46.0942 146.795 46.089C146.04 46.0771 145.28 46.1141 144.529 46.1984C144.127 46.2436 143.796 46.4975 143.597 46.8851C143.559 46.9595 143.45 47.0445 143.373 47.0451C142.121 47.0549 140.869 47.0521 139.569 47.0521ZM148.544 50.6709C147.405 50.9679 146.319 51.2312 145.246 51.5404C144.732 51.6883 144.206 51.8615 143.753 52.1337C143.099 52.5256 142.888 53.2427 143.07 54.0349C143.235 54.7493 143.678 55.1737 144.472 55.2723C144.901 55.3255 145.348 55.3075 145.78 55.2588C147.11 55.1087 148.144 54.2146 148.384 52.9174C148.52 52.1775 148.496 51.4076 148.544 50.6709Z" fill="#526B80"/>
<path d="M119.193 58.0623C118.295 58.0623 117.45 58.1377 116.624 58.0422C115.699 57.935 115.222 57.279 115.221 56.3393C115.218 53.857 115.222 51.3747 115.217 48.8924C115.217 48.6229 115.189 48.3507 115.146 48.0846C114.999 47.1932 114.492 46.5712 113.609 46.3969C112.987 46.2741 112.317 46.2291 111.692 46.3195C110.4 46.5067 109.804 47.2697 109.793 48.5932C109.781 50.0282 109.79 51.4633 109.79 52.8985C109.79 54.4886 109.79 56.0789 109.79 57.6692C109.79 57.809 109.79 57.9489 109.79 58.1122C108.449 58.1122 107.136 58.1122 105.784 58.1122C105.777 58.0112 105.762 57.9006 105.762 57.79C105.761 54.9327 105.738 52.0751 105.777 49.2184C105.788 48.414 105.901 47.5897 106.111 46.8134C106.598 45.0148 107.805 43.8519 109.582 43.331C111.494 42.7706 113.432 42.7594 115.354 43.2989C117.599 43.9292 118.765 45.5 119.092 47.7477C119.169 48.2821 119.187 48.8288 119.188 49.37C119.198 52.1238 119.193 54.8777 119.193 57.6314C119.193 57.7843 119.193 57.9372 119.193 58.0623Z" fill="#526B80"/>
<path d="M90.7829 43.182C92.1266 43.182 93.4142 43.182 94.7394 43.182C94.7394 43.3389 94.7394 43.4775 94.7394 43.6161C94.7394 46.6537 94.7375 49.6911 94.7425 52.7287C94.7429 53.0242 94.7659 53.3229 94.8119 53.6147C94.9569 54.5322 95.5096 55.1793 96.418 55.319C97.0572 55.4173 97.7348 55.427 98.3733 55.3307C99.4371 55.1701 100.058 54.4255 100.09 53.3491C100.129 52.0189 100.116 50.687 100.12 49.3559C100.123 47.9212 100.116 46.4864 100.122 45.0517C100.127 43.7467 100.718 43.1645 102.025 43.1632C102.682 43.1625 103.34 43.1631 104.03 43.1631C104.037 43.3087 104.048 43.4329 104.048 43.557C104.049 46.5687 104.06 49.5804 104.043 52.592C104.037 53.7486 103.856 54.8794 103.291 55.9172C102.934 56.5721 102.436 57.084 101.761 57.4041C98.9814 58.7219 96.1925 58.8695 93.3747 57.4982C91.9464 56.8031 91.2024 55.6366 90.9487 54.1247C90.8446 53.5038 90.7935 52.8672 90.79 52.2374C90.7736 49.368 90.7829 46.4984 90.7829 43.6289C90.7829 43.4892 90.7829 43.3495 90.7829 43.182Z" fill="#526B80"/>
<path d="M154.165 43.1807C155.493 43.1807 156.781 43.1807 158.122 43.1807C158.122 43.3342 158.122 43.4836 158.122 43.633C158.122 46.6577 158.12 49.6823 158.125 52.7069C158.125 53.0026 158.145 53.3013 158.191 53.5931C158.343 54.5571 158.893 55.1847 159.855 55.3278C160.482 55.421 161.146 55.4247 161.773 55.3291C162.808 55.1709 163.428 54.4189 163.472 53.371C163.509 52.4935 163.5 51.6138 163.502 50.7351C163.505 48.8868 163.502 47.0384 163.504 45.19C163.504 45.0224 163.507 44.8536 163.526 44.6874C163.631 43.7644 164.084 43.2566 164.999 43.1872C165.792 43.1269 166.594 43.1747 167.431 43.1747C167.431 43.2976 167.431 43.3971 167.431 43.4966C167.431 46.534 167.443 49.5716 167.425 52.609C167.418 53.7793 167.231 54.9237 166.647 55.9668C166.298 56.5917 165.813 57.0832 165.162 57.3934C162.371 58.7237 159.572 58.8741 156.742 57.4894C155.314 56.7906 154.577 55.6204 154.33 54.1079C154.226 53.4738 154.176 52.8246 154.172 52.1818C154.156 49.3383 154.165 46.4946 154.165 43.6509C154.165 43.5091 154.165 43.3673 154.165 43.1807Z" fill="#526B80"/>
<path d="M88.9773 43.1717C88.9773 44.4761 88.9773 45.7383 88.9773 47.058C88.6334 47.058 88.3013 47.0397 87.9721 47.0622C87.4454 47.0985 86.9063 47.1029 86.3975 47.2251C85.0827 47.5409 84.3672 48.5765 84.353 50.1867C84.3311 52.6818 84.3448 55.1772 84.3434 57.6725C84.3433 57.812 84.3434 57.9516 84.3434 58.1135C83.0003 58.1135 81.6873 58.1135 80.3151 58.1135C80.3151 57.9812 80.3151 57.8451 80.3151 57.7091C80.3151 55.3302 80.2747 52.9503 80.3346 50.5728C80.359 49.6033 80.5078 48.6139 80.7638 47.6783C81.2861 45.7699 82.5615 44.4923 84.4058 43.794C85.8663 43.241 87.39 43.1194 88.9773 43.1717Z" fill="#526B80"/>
<path d="M16.7114 55.9182C14.889 56.9102 12.209 58.9329 11.0344 60.2445C10.6732 60.6478 9.39008 62.2999 8.41129 61.4582C7.51621 60.6884 7.96107 59.5789 10.2318 57.5822C12.291 55.7716 14.421 54.4501 14.421 54.4501C14.421 54.4501 13.7163 44.7406 17.6706 41.4128C21.6248 38.0849 25.5399 37.8108 31.5301 38.8288C37.5203 39.8467 39.9084 40.0816 43.2364 39.5727C46.5641 39.0636 47.7778 38.398 47.7778 38.398C47.7778 38.398 48.2869 46.5807 42.4924 52.1402C36.698 57.6997 30.9232 59.207 26.3426 59.4027C21.7618 59.5985 17.4357 58.1303 17.4357 58.1303C17.4357 58.1303 22.0988 57.3576 26.2838 54.5676C30.5122 51.7486 34.4664 47.6377 34.4664 47.6377C34.4664 47.6377 29.0303 51.1964 25.403 52.7078C21.1746 54.4697 18.2578 55.0765 16.7114 55.9182Z" fill="url(#paint0_linear_11_133)"/>
<defs>
<linearGradient id="paint0_linear_11_133" x1="27.8843" y1="38.7353" x2="27.8843" y2="61.0634" gradientUnits="userSpaceOnUse">
<stop stop-color="#4DD6AC"/>
<stop offset="1" stop-color="#5DA18C"/>
</linearGradient>
</defs>
</svg>
