<svg width="200" height="100" viewBox="0 0 200 100" fill="none" xmlns="http://www.w3.org/2000/svg">
<path d="M36.4003 54.6C30.8003 54.6 26.3003 50.1 26.3003 44.5C26.3003 38.9 30.8003 34.5 36.4003 34.5C41.9003 34.5 46.4003 39 46.4003 44.6V54.7C44.4003 54.7 42.8003 53.1 42.8003 51.1V44.8C42.8003 41.5 40.4003 38.6 37.2003 38.2C33.6003 37.8 30.4003 40.3 30.0003 43.8C29.9003 44.7 30.0003 45.7 30.2003 46.6C31.0003 49.3 33.6003 51.1 36.4003 51.1C37.1003 51.1 40.0003 50.6 41.4003 48.6V52.7C39.9003 54.3 37.0003 54.6 36.4003 54.6Z" fill="#262424"/>
<path d="M64.8003 51.2999C60.9003 51.2999 57.8003 48.1999 57.8003 44.2999C57.8003 40.3999 60.9003 37.3999 64.8003 37.3999C68.6003 37.3999 71.7003 40.4999 71.7003 44.2999V51.1999C70.3003 51.1999 69.2003 50.0999 69.2003 48.6999V44.2999C69.2003 41.9999 67.6003 40.0999 65.3003 39.7999C62.9003 39.4999 60.6003 41.1999 60.3003 43.6999C60.2003 44.2999 60.3003 44.9999 60.5003 45.5999C61.1003 47.4999 62.8003 48.6999 64.8003 48.6999C65.3003 48.6999 67.3003 48.3999 68.2003 46.9999V49.7999C67.1003 51.0999 65.2003 51.2999 64.8003 51.2999Z" fill="#262424"/>
<path d="M47.9001 47.4C47.7001 48.1 47.6001 48.7 47.6001 49.4V54.3C47.6001 55.1 47.0001 55.7 46.2001 55.7H41.3001C40.6001 55.7 39.9001 55.8 39.3001 56C32.9001 57.6 26.5001 53.8 24.9001 47.4C23.3001 41 27.1001 34.6 33.5001 33C39.9001 31.4 46.3001 35.2 47.9001 41.6C48.4001 43.5 48.4001 45.5 47.9001 47.4ZM40.4001 65.2C41.3001 65.2 42.0001 64.5 42.0001 63.7C42.0001 61.7 43.3001 60.3 45.0001 59.3C46.7001 58.3 48.5001 57.9 50.3001 58.9C51.0001 59.3 52.0001 59.1 52.4001 58.3L56.5001 51.3C56.9001 50.6 56.7001 49.6 55.9001 49.2C54.2001 48.2 53.6001 46.4 53.6001 44.4C53.6001 42.4 54.2001 40.6 55.9001 39.6C56.6001 39.2 56.9001 38.2 56.5001 37.5L52.4001 30.5C52.0001 29.8 51.0001 29.5 50.3001 29.9C48.6001 30.9 46.7001 30.4 45.0001 29.5C43.3001 28.5 42.0001 27.1 42.0001 25.1C42.0001 24.2 41.3001 23.5 40.4001 23.5H32.3001C31.4001 23.5 30.7001 24.2 30.7001 25.1C30.7001 27.1 29.4001 28.5 27.7001 29.5C26.0001 30.5 24.1001 30.9 22.4001 29.9C21.7001 29.5 20.7001 29.7 20.3001 30.5L16.3001 37.5C15.9001 38.2 16.1001 39.2 16.9001 39.6C18.6001 40.6 19.2001 42.4 19.2001 44.4C19.2001 46.4 18.7001 48.2 16.9001 49.2C16.2001 49.6 15.9001 50.6 16.3001 51.3L20.4001 58.3C20.8001 59 21.8001 59.3 22.5001 58.9C24.2001 57.9 26.1001 58.3 27.8001 59.3C29.5001 60.3 30.8001 61.7 30.8001 63.7C30.8001 64.6 31.5001 65.2 32.3001 65.2H40.4001Z" fill="#449FCB"/>
<path d="M73.7002 70C77.6002 70 80.7002 66.8 80.7002 63C80.7002 59.1 77.5002 56 73.7002 56C69.9002 56 66.7002 59.1 66.7002 63V76.1C68.1002 76.1 69.2002 75 69.2002 73.6V63.1C69.2002 60.8 70.9002 58.9 73.1002 58.5C75.6002 58.2 77.8002 59.9 78.1002 62.4C78.2002 63 78.1002 63.7 77.9002 64.3C77.3002 66.2 75.6002 67.4 73.6002 67.4C73.1002 67.4 71.1002 67.1 70.1002 65.6V68.5C71.3002 69.8 73.3002 70 73.7002 70Z" fill="#262424"/>
<path d="M74.0003 42.6999C74.0003 39.2999 76.8003 37.3999 79.8003 37.3999C83.2003 37.3999 85.1003 39.2999 85.1003 41.3999C85.1003 42.5999 84.3003 43.6999 83.2003 44.1999C84.8003 44.4999 86.0003 45.8999 85.9003 47.5999C85.9003 48.1999 85.7003 48.7999 85.4003 49.2999C84.3003 51.1999 82.5003 51.2999 80.6003 51.2999H77.4003V48.8999H80.5003C81.7003 48.8999 83.3003 48.7999 83.3003 47.2999C83.3003 45.4999 81.5003 45.4999 80.0003 45.4999H77.4003V43.1999H79.5003C80.6003 43.1999 82.4003 43.2999 82.4003 41.5999C82.4003 40.8999 82.0003 39.6999 79.8003 39.6999C79.1003 39.6999 76.3003 39.7999 76.3003 43.0999V48.6999C76.3003 50.0999 75.2003 51.1999 73.8003 51.1999L74.0003 42.6999Z" fill="#262424"/>
<path d="M97.4999 40.1H93.1999V48.8C93.1999 50.2 92.0999 51.3 90.6999 51.3V40.1H86.3999V37.7H95.0999C96.3999 37.7 97.4999 38.8 97.4999 40.1Z" fill="#262424"/>
<path d="M111.9 44.4999C111.9 48.3999 108.7 51.5999 104.8 51.5999C100.9 51.5999 97.7002 48.3999 97.7002 44.4999C97.7002 40.5999 100.9 37.3999 104.8 37.3999C108.7 37.3999 111.9 40.4999 111.9 44.4999ZM100.3 44.4999C100.3 47.2999 102.2 49.1999 104.8 49.1999C107.4 49.1999 109.3 47.1999 109.3 44.4999C109.3 41.7999 107.5 39.7999 104.8 39.7999C102.1 39.7999 100.3 41.6999 100.3 44.4999Z" fill="#262424"/>
<path d="M114.7 39.4999C114.8 38.6999 115.2 37.3999 116.6 37.3999C118 37.3999 118.3 38.2999 118.6 39.1999L120.7 45.8999C120.8 46.3999 121 46.8999 121.1 47.2999C121.2 47.5999 121.3 47.8999 121.4 48.3999C121.5 48.4999 121.5 48.6999 121.5 48.6999C121.6 48.6999 121.6 48.5999 121.6 48.3999C121.9 47.2999 122.1 46.4999 122.2 45.9999L124.4 39.1999C124.7 38.2999 125 37.3999 126.4 37.3999C127.8 37.3999 128.1 38.6999 128.3 39.4999L130.1 48.6999C130.3 49.8999 129.5 50.9999 128.4 51.2999C128.3 51.2999 128.1 51.2999 128 51.2999L126.3 40.7999C126.3 40.6999 126.3 40.5999 126.2 40.5999V40.6999C126.1 40.9999 126.1 41.2999 125.9 41.6999L123.5 49.2999C122.9 50.9999 122.6 51.6999 121.7 51.6999C120.7 51.6999 120.3 50.9999 119.8 49.2999L117.4 41.7999C117.3 41.5999 117.2 40.9999 117.1 40.7999V40.6999C117.1 40.6999 117.1 40.7999 117 40.8999L115.3 51.3999C114.1 51.3999 113.1 50.3999 113.1 49.1999C113.1 49.0999 113.1 48.8999 113.1 48.7999L114.7 39.4999Z" fill="#262424"/>
<path d="M145.2 44.4999C145.2 48.3999 142 51.5999 138.1 51.5999C134.2 51.5999 131 48.3999 131 44.4999C131 40.5999 134.2 37.3999 138.1 37.3999C142 37.3999 145.2 40.4999 145.2 44.4999ZM133.6 44.4999C133.6 47.2999 135.5 49.1999 138.1 49.1999C140.7 49.1999 142.6 47.1999 142.6 44.4999C142.6 41.7999 140.8 39.7999 138.1 39.7999C135.4 39.7999 133.6 41.6999 133.6 44.4999Z" fill="#262424"/>
<path d="M156.6 37.7V40.1H152.3V51.3C150.9 51.3 149.8 50.2 149.8 48.8V40.1H145.5C145.5 38.8 146.6 37.7 147.9 37.7H156.6Z" fill="#262424"/>
<path d="M160.2 47.2999V47.7999V47.8999C160.2 47.8999 160.2 47.7999 160.3 47.7999C160.4 47.5999 160.7 47.0999 160.8 46.9999L165.7 39.5999C166.4 38.5999 166.9 37.3999 168.1 37.3999C169.6 37.3999 169.6 38.8999 169.6 39.0999V51.2999C168.2 51.2999 167.1 50.1999 167.1 48.7999V41.2999V41.1999C167.1 41.1999 167.1 41.2999 167 41.2999C166.9 41.4999 166.6 41.9999 166.5 42.0999L161.6 49.3999C160.9 50.3999 160.5 51.5999 159.3 51.5999C157.9 51.5999 157.8 50.2999 157.8 49.6999V37.6999C159.2 37.6999 160.3 38.7999 160.3 40.1999L160.2 47.2999Z" fill="#262424"/>
<path d="M171.9 42.6999C171.9 39.2999 174.7 37.3999 177.7 37.3999C181.1 37.3999 183 39.2999 183 41.3999C183 42.5999 182.2 43.6999 181.1 44.1999C182.7 44.4999 183.9 45.9999 183.8 47.5999C183.8 48.1999 183.6 48.7999 183.3 49.2999C182.2 51.1999 180.4 51.2999 178.5 51.2999H175.3V48.8999H178.4C179.6 48.8999 181.2 48.7999 181.2 47.2999C181.2 45.4999 179.4 45.4999 177.9 45.4999H175.3V43.1999H177.4C178.4 43.1999 180.3 43.2999 180.3 41.5999C180.3 40.8999 179.9 39.6999 177.7 39.6999C177 39.6999 174.2 39.7999 174.2 43.0999V48.6999C174.2 50.0999 173.1 51.1999 171.7 51.1999L171.9 42.6999Z" fill="#262424"/>
<path d="M57.7002 62.2C57.7002 61 57.7002 59.1 58.9002 57.7C60.2002 56.3 61.8002 56.3 63.6002 56.3H66.5002V58.7H63.1002C62.3002 58.7 61.4002 58.7 60.7002 59.5C60.1002 60.3 60.2002 61.5 60.2002 62.2V67.4C60.2002 68.8 59.1002 69.9 57.7002 69.9V62.2Z" fill="#262424"/>
<path d="M85 56.3V63.1C85 64.6 84.9 66.4 86.4 67.4C86.9 67.7 87.5 67.9 88.2 67.8C88.9 67.8 89.6 67.6 90.2 67.1C91.7 66 91.7 64.1 91.7 63V56.2C93.1 56.2 94.2 57.3 94.2 58.7V69.7C94.2 71.7 94 73.5 92.2 74.9C91 75.9 89.2 76.3 87.6 76.3C85.9 76.3 84.2 75.9 82.6 75.3L83 73C84.3 73.7 85.8 74.1 87.3 74.1C88.4 74.1 90 73.9 90.8 73.1C91.8 72.2 91.7 71 91.7 70V68.4C91.1 69.3 90.2 69.9 89.2 70.1C88.7 70.2 88.1 70.3 87.6 70.2C86.9 70.2 86.3 70.1 85.6 69.9C82.7 68.8 82.5 65.9 82.5 63.6V58.9C82.5 57.5 83.7 56.3 85 56.3Z" fill="#262424"/>
<path d="M96.8003 62V67.5C96.8003 68.9 97.9003 70 99.3003 70V61.9C99.3003 60.2 100.7 58.8 102.4 58.8C104.1 58.8 105.5 60.2 105.5 61.9V70C106.9 70 108 68.9 108 67.5V62C108 58.9 105.5 56.4 102.4 56.4C99.3003 56.3 96.8003 58.9 96.8003 62Z" fill="#262424"/>
<path d="M110.5 62V67.5C110.5 68.9 111.6 70 113 70V61.9C113 60.2 114.4 58.8 116.1 58.8C117.8 58.8 119.2 60.2 119.2 61.9V70C120.6 70 121.7 68.9 121.7 67.5V62C121.7 58.9 119.2 56.4 116.1 56.4C113.1 56.3 110.5 58.9 110.5 62Z" fill="#262424"/>
</svg>
