<svg width="184" height="42" viewBox="0 0 184 42" fill="none" xmlns="http://www.w3.org/2000/svg">
<path d="M38.8777 19.4353C38.8777 30.169 30.1746 38.8705 19.4388 38.8705C8.70307 38.8705 0 30.169 0 19.4353C0 8.70146 8.70307 0 19.4388 0C30.1746 0 38.8777 8.70146 38.8777 19.4353Z" fill="url(#paint0_linear_402_222)"/>
<path d="M36.3595 41.4382L16.2156 38.7193L38.5249 16.4141L41.4458 35.2451L36.3595 41.4382Z" fill="url(#paint1_linear_402_222)" fill-opacity="0.32"/>
<ellipse cx="37.7697" cy="37.2593" rx="4.73381" ry="4.73294" fill="url(#paint2_linear_402_222)"/>
<mask id="mask0_402_222" style="mask-type:alpha" maskUnits="userSpaceOnUse" x="33" y="32" width="10" height="10">
<ellipse cx="37.7697" cy="37.2593" rx="4.73381" ry="4.73294" fill="url(#paint3_linear_402_222)"/>
</mask>
<g mask="url(#mask0_402_222)">
<g filter="url(#filter0_f_402_222)">
<path d="M46.0289 41.7002C46.0289 45.6729 42.8047 48.8934 38.8274 48.8934C34.8502 48.8934 31.626 45.6729 31.626 41.7002C31.626 39.8896 32.2957 37.8237 33.4013 36.1115C34.7214 34.0669 36.6629 32.5264 38.8274 32.5264C40.9555 32.5264 40.4083 36.1247 41.7266 38.1179C42.8722 39.8499 46.0289 39.8532 46.0289 41.7002Z" fill="#0B80BD"/>
</g>
</g>
<mask id="mask1_402_222" style="mask-type:alpha" maskUnits="userSpaceOnUse" x="0" y="0" width="39" height="39">
<ellipse cx="19.4388" cy="19.4353" rx="19.4388" ry="19.4353" fill="url(#paint4_linear_402_222)"/>
</mask>
<g mask="url(#mask1_402_222)">
<g filter="url(#filter1_f_402_222)">
<circle cx="6.92065" cy="6.92065" r="6.92065" transform="matrix(-0.707172 0.707041 -0.707172 -0.707041 35.188 16.332)" fill="#FF3333"/>
</g>
<g filter="url(#filter2_f_402_222)">
<circle cx="17.4566" cy="17.4566" r="17.4566" transform="matrix(-0.707172 0.707041 -0.707172 -0.707041 35.2114 22.6614)" fill="url(#paint5_linear_402_222)"/>
</g>
<g filter="url(#filter3_f_402_222)">
<path d="M14.1967 12.5451C7.51416 14.7793 7.26181 22.4518 0.4408 24.2178C-11.5284 27.3169 2.22372 -1.01065 14.1408 -4.30469C19.1348 -5.68507 22.6356 -5.6787 27.387 -3.62236C36.0105 0.109766 43.8851 10.1538 38.3715 17.7676C32.7057 25.5916 23.3615 9.48111 14.1967 12.5451Z" fill="#4ACFFF"/>
</g>
</g>
<path d="M74.4144 34.9692H69.0431L66.2092 30.7191C66.0554 30.7411 65.9071 30.7521 65.7643 30.7521C65.6325 30.7521 65.5007 30.7521 65.3689 30.7521C64.2485 30.7521 63.1666 30.6038 62.1231 30.3073C61.0906 30.0218 60.1185 29.6154 59.2068 29.0883C58.3061 28.5502 57.4823 27.9077 56.7354 27.1609C55.9885 26.4141 55.3459 25.5905 54.8077 24.6899C54.2804 23.7784 53.8685 22.8065 53.5719 21.7742C53.2863 20.7309 53.1436 19.6492 53.1436 18.529C53.1436 17.4088 53.2863 16.3271 53.5719 15.2838C53.8685 14.2405 54.2804 13.2685 54.8077 12.368C55.3459 11.4675 55.9885 10.6438 56.7354 9.89703C57.4823 9.15024 58.3061 8.51328 59.2068 7.98614C60.1185 7.459 61.0906 7.05266 62.1231 6.76712C63.1666 6.47061 64.2485 6.32235 65.3689 6.32235C66.4893 6.32235 67.5712 6.47061 68.6147 6.76712C69.6582 7.05266 70.6303 7.459 71.531 7.98614C72.4317 8.51328 73.2555 9.15024 74.0025 9.89703C74.7494 10.6438 75.3865 11.4675 75.9137 12.368C76.4409 13.2685 76.8474 14.2405 77.1329 15.2838C77.4295 16.3271 77.5778 17.4088 77.5778 18.529C77.5778 19.6931 77.413 20.8242 77.0835 21.9224C76.765 23.0207 76.3091 24.0475 75.716 25.0029C75.1228 25.9474 74.4034 26.804 73.5576 27.5728C72.7228 28.3415 71.7892 28.984 70.7566 29.5001L74.4144 34.9692ZM72.8821 18.529C72.8821 17.4967 72.6844 16.5247 72.2889 15.6132C71.8935 14.6907 71.3553 13.8945 70.6743 13.2246C70.0042 12.5437 69.2079 12.0056 68.2852 11.6102C67.3735 11.2149 66.4014 11.0172 65.3689 11.0172C64.3254 11.0172 63.3478 11.2149 62.4361 11.6102C61.5245 12.0056 60.7281 12.5437 60.0471 13.2246C59.3661 13.8945 58.8279 14.6907 58.4324 15.6132C58.037 16.5247 57.8393 17.4967 57.8393 18.529C57.8393 19.5613 58.037 20.5332 58.4324 21.4447C58.8279 22.3453 59.3661 23.136 60.0471 23.8169C60.7281 24.4978 61.5245 25.0359 62.4361 25.4312C63.3478 25.8266 64.3254 26.0243 65.3689 26.0243C66.4014 26.0243 67.3735 25.8266 68.2852 25.4312C69.2079 25.0359 70.0042 24.4978 70.6743 23.8169C71.3553 23.136 71.8935 22.3453 72.2889 21.4447C72.6844 20.5332 72.8821 19.5613 72.8821 18.529Z" fill="white"/>
<path d="M93.1808 28.1823C92.8183 28.5117 92.4284 28.8247 92.011 29.1212C91.6046 29.4068 91.1762 29.6594 90.7258 29.879C90.2755 30.0877 89.8087 30.2524 89.3254 30.3732C88.853 30.505 88.3697 30.5709 87.8754 30.5709C86.788 30.5709 85.7665 30.3787 84.8109 29.9943C83.8552 29.6099 83.015 29.0663 82.29 28.3635C81.576 27.6496 81.0103 26.7875 80.593 25.7772C80.1865 24.7558 79.9833 23.6137 79.9833 22.3508V12.5986H84.4649V22.3508C84.4649 22.9438 84.5527 23.4764 84.7285 23.9487C84.9152 24.4099 85.1624 24.7998 85.4699 25.1182C85.7775 25.4367 86.1345 25.6783 86.5409 25.8431C86.9583 26.0078 87.4031 26.0902 87.8754 26.0902C88.3368 26.0902 88.7707 25.9858 89.1771 25.7772C89.5945 25.5575 89.9569 25.272 90.2645 24.9206C90.5721 24.5691 90.8137 24.1738 90.9895 23.7345C91.1652 23.2842 91.2531 22.823 91.2531 22.3508V12.5986H95.7511V30.2414H94.6637L93.1808 28.1823Z" fill="white"/>
<path d="M116.248 21.2635C116.248 22.5814 116.011 23.8114 115.539 24.9535C115.067 26.0847 114.424 27.0676 113.611 27.9022C112.798 28.7259 111.843 29.3793 110.744 29.8625C109.657 30.3348 108.487 30.5709 107.235 30.5709C105.994 30.5709 104.824 30.3348 103.726 29.8625C102.638 29.3793 101.683 28.7259 100.859 27.9022C100.046 27.0676 99.4033 26.0847 98.931 24.9535C98.4587 23.8114 98.2225 22.5814 98.2225 21.2635C98.2225 19.9237 98.4587 18.6827 98.931 17.5406C99.4033 16.3984 100.046 15.4155 100.859 14.5919C101.683 13.7572 102.638 13.1038 103.726 12.6316C104.824 12.1593 105.994 11.9232 107.235 11.9232C108.487 11.9232 109.657 12.1484 110.744 12.5986C111.843 13.0379 112.798 13.6694 113.611 14.493C114.424 15.3057 115.067 16.2886 115.539 17.4417C116.011 18.5839 116.248 19.8578 116.248 21.2635ZM111.717 21.2635C111.717 20.5387 111.596 19.8853 111.354 19.3032C111.123 18.7102 110.805 18.205 110.398 17.7877C109.992 17.3594 109.514 17.0354 108.965 16.8158C108.427 16.5851 107.85 16.4698 107.235 16.4698C106.62 16.4698 106.038 16.5851 105.489 16.8158C104.95 17.0354 104.478 17.3594 104.072 17.7877C103.676 18.205 103.363 18.7102 103.132 19.3032C102.902 19.8853 102.786 20.5387 102.786 21.2635C102.786 21.9444 102.902 22.5759 103.132 23.1579C103.363 23.74 103.676 24.2452 104.072 24.6735C104.478 25.1018 104.95 25.4422 105.489 25.6948C106.038 25.9364 106.62 26.0572 107.235 26.0572C107.85 26.0572 108.427 25.9419 108.965 25.7113C109.514 25.4807 109.992 25.1567 110.398 24.7394C110.805 24.322 111.123 23.8169 111.354 23.2238C111.596 22.6308 111.717 21.9774 111.717 21.2635Z" fill="white"/>
<path d="M127.451 30.2414C126.364 30.2414 125.342 30.0382 124.387 29.6319C123.431 29.2146 122.591 28.649 121.866 27.9352C121.152 27.2103 120.586 26.3702 120.169 25.4148C119.762 24.4593 119.559 23.438 119.559 22.3508V17.1123H117.368V12.6316H119.559V5.58105H124.041V12.6316H130.862V17.1123H124.041V22.3508C124.041 22.823 124.129 23.2678 124.304 23.6851C124.48 24.0914 124.722 24.4483 125.029 24.7558C125.337 25.0633 125.699 25.3104 126.117 25.4971C126.534 25.6728 126.979 25.7607 127.451 25.7607H130.862V30.2414H127.451Z" fill="white"/>
<path d="M148.821 16.1074L145.526 19.4185C145.361 18.9573 145.136 18.5454 144.85 18.183C144.565 17.8096 144.241 17.4967 143.878 17.2441C143.527 16.9915 143.142 16.7993 142.725 16.6675C142.307 16.5357 141.879 16.4698 141.44 16.4698C140.825 16.4698 140.242 16.5961 139.693 16.8487C139.155 17.1013 138.683 17.4582 138.276 17.9195C137.881 18.3697 137.568 18.9079 137.337 19.5338C137.106 20.1598 136.991 20.8517 136.991 21.6095C136.991 22.2245 137.106 22.801 137.337 23.3391C137.568 23.8773 137.881 24.3495 138.276 24.7558C138.683 25.1622 139.155 25.4807 139.693 25.7113C140.242 25.9419 140.825 26.0572 141.44 26.0572C141.879 26.0572 142.302 25.9968 142.708 25.876C143.115 25.7552 143.494 25.585 143.845 25.3653C144.208 25.1347 144.526 24.8602 144.801 24.5417C145.086 24.2122 145.317 23.8498 145.493 23.4545L148.788 26.7656C148.371 27.3586 147.887 27.8912 147.338 28.3635C146.8 28.8357 146.212 29.2365 145.575 29.566C144.949 29.8955 144.285 30.1426 143.582 30.3073C142.89 30.483 142.176 30.5709 141.44 30.5709C140.198 30.5709 139.029 30.3402 137.93 29.879C136.843 29.4068 135.887 28.7643 135.063 27.9516C134.251 27.139 133.608 26.189 133.136 25.1018C132.663 24.0145 132.427 22.8504 132.427 21.6095C132.427 20.2587 132.663 18.9957 133.136 17.8206C133.608 16.6455 134.251 15.6242 135.063 14.7566C135.887 13.878 136.843 13.1862 137.93 12.681C139.029 12.1758 140.198 11.9232 141.44 11.9232C142.176 11.9232 142.895 12.0166 143.598 12.2033C144.312 12.39 144.988 12.6645 145.625 13.0269C146.273 13.3784 146.866 13.8122 147.404 14.3283C147.953 14.8445 148.426 15.4375 148.821 16.1074Z" fill="white"/>
<path d="M167.851 30.2414H166.764L165.017 27.8198C164.589 28.2042 164.133 28.5666 163.65 28.9071C163.177 29.2365 162.678 29.5276 162.15 29.7802C161.623 30.0218 161.079 30.214 160.519 30.3567C159.97 30.4995 159.41 30.5709 158.839 30.5709C157.597 30.5709 156.428 30.3622 155.329 29.9449C154.242 29.5276 153.286 28.9236 152.462 28.1328C151.649 27.3311 151.007 26.3537 150.535 25.2006C150.062 24.0475 149.826 22.7351 149.826 21.2635C149.826 19.8908 150.062 18.6333 150.535 17.4912C151.007 16.338 151.649 15.3497 152.462 14.526C153.286 13.7023 154.242 13.0654 155.329 12.6151C156.428 12.1539 157.597 11.9232 158.839 11.9232C159.41 11.9232 159.975 11.9946 160.536 12.1374C161.096 12.2801 161.64 12.4778 162.167 12.7304C162.694 12.983 163.194 13.2795 163.666 13.62C164.149 13.9604 164.6 14.3283 165.017 14.7237L166.764 12.6316H167.851V30.2414ZM163.32 21.2635C163.32 20.6485 163.199 20.0555 162.958 19.4844C162.727 18.9024 162.408 18.3917 162.002 17.9524C161.596 17.5021 161.118 17.1452 160.569 16.8817C160.03 16.6071 159.454 16.4698 158.839 16.4698C158.223 16.4698 157.641 16.5742 157.092 16.7828C156.554 16.9915 156.082 17.299 155.675 17.7053C155.28 18.1117 154.967 18.6168 154.736 19.2208C154.505 19.8139 154.39 20.4948 154.39 21.2635C154.39 22.0323 154.505 22.7187 154.736 23.3227C154.967 23.9157 155.28 24.4154 155.675 24.8217C156.082 25.2281 156.554 25.5356 157.092 25.7442C157.641 25.9529 158.223 26.0572 158.839 26.0572C159.454 26.0572 160.03 25.9254 160.569 25.6619C161.118 25.3873 161.596 25.0304 162.002 24.5911C162.408 24.1408 162.727 23.6302 162.958 23.0591C163.199 22.477 163.32 21.8785 163.32 21.2635Z" fill="white"/>
<path d="M180.142 30.2414C179.055 30.2414 178.033 30.0382 177.078 29.6319C176.122 29.2146 175.282 28.649 174.557 27.9352C173.843 27.2103 173.277 26.3702 172.86 25.4148C172.453 24.4593 172.25 23.438 172.25 22.3508V17.1123H170.059V12.6316H172.25V5.58105H176.732V12.6316H183.553V17.1123H176.732V22.3508C176.732 22.823 176.82 23.2678 176.995 23.6851C177.171 24.0914 177.413 24.4483 177.72 24.7558C178.028 25.0633 178.39 25.3104 178.808 25.4971C179.225 25.6728 179.67 25.7607 180.142 25.7607H183.553V30.2414H180.142Z" fill="white"/>
<defs>
<filter id="filter0_f_402_222" x="3.47559" y="4.37598" width="70.7036" height="72.668" filterUnits="userSpaceOnUse" color-interpolation-filters="sRGB">
<feFlood flood-opacity="0" result="BackgroundImageFix"/>
<feBlend mode="normal" in="SourceGraphic" in2="BackgroundImageFix" result="shape"/>
<feGaussianBlur stdDeviation="14.0752" result="effect1_foregroundBlur_402_222"/>
</filter>
<filter id="filter1_f_402_222" x="-20.941" y="-30.0075" width="92.6816" height="92.679" filterUnits="userSpaceOnUse" color-interpolation-filters="sRGB">
<feFlood flood-opacity="0" result="BackgroundImageFix"/>
<feBlend mode="normal" in="SourceGraphic" in2="BackgroundImageFix" result="shape"/>
<feGaussianBlur stdDeviation="19.7098" result="effect1_foregroundBlur_402_222"/>
</filter>
<filter id="filter2_f_402_222" x="-46.3558" y="-34.213" width="113.755" height="113.749" filterUnits="userSpaceOnUse" color-interpolation-filters="sRGB">
<feFlood flood-opacity="0" result="BackgroundImageFix"/>
<feBlend mode="normal" in="SourceGraphic" in2="BackgroundImageFix" result="shape"/>
<feGaussianBlur stdDeviation="19.7098" result="effect1_foregroundBlur_402_222"/>
</filter>
<filter id="filter3_f_402_222" x="-51.855" y="-52.9488" width="139.743" height="125.086" filterUnits="userSpaceOnUse" color-interpolation-filters="sRGB">
<feFlood flood-opacity="0" result="BackgroundImageFix"/>
<feBlend mode="normal" in="SourceGraphic" in2="BackgroundImageFix" result="shape"/>
<feGaussianBlur stdDeviation="23.8417" result="effect1_foregroundBlur_402_222"/>
</filter>
<linearGradient id="paint0_linear_402_222" x1="50.5995" y1="37.4367" x2="-47.0504" y2="-11.1442" gradientUnits="userSpaceOnUse">
<stop stop-color="#0B80BD" stop-opacity="0.2"/>
<stop offset="1" stop-color="white" stop-opacity="0"/>
</linearGradient>
<linearGradient id="paint1_linear_402_222" x1="55.194" y1="53.472" x2="27.652" y2="27.4357" gradientUnits="userSpaceOnUse">
<stop stop-color="#0B80BD"/>
<stop offset="1" stop-color="#0034D1" stop-opacity="0"/>
</linearGradient>
<linearGradient id="paint2_linear_402_222" x1="52.2229" y1="49.0916" x2="28.2051" y2="28.645" gradientUnits="userSpaceOnUse">
<stop stop-color="#FF41F2"/>
<stop offset="1" stop-color="white"/>
</linearGradient>
<linearGradient id="paint3_linear_402_222" x1="52.2229" y1="49.0916" x2="28.2051" y2="28.645" gradientUnits="userSpaceOnUse">
<stop stop-color="#FF41F2"/>
<stop offset="1" stop-color="white"/>
</linearGradient>
<linearGradient id="paint4_linear_402_222" x1="39.7338" y1="38.8705" x2="1.26549" y2="3.61814" gradientUnits="userSpaceOnUse">
<stop stop-color="white"/>
<stop offset="1" stop-color="#0B80BD"/>
</linearGradient>
<linearGradient id="paint5_linear_402_222" x1="17.4566" y1="0" x2="17.4566" y2="34.9131" gradientUnits="userSpaceOnUse">
<stop stop-color="#FFD8FC"/>
<stop offset="1" stop-color="#FF41F2"/>
</linearGradient>
</defs>
</svg>
