<svg width="225" height="42" viewBox="0 0 225 42" fill="none" xmlns="http://www.w3.org/2000/svg">
<path d="M38.8777 19.4388C38.8777 30.1746 30.1746 38.8777 19.4388 38.8777C8.70307 38.8777 0 30.1746 0 19.4388C0 8.70307 8.70307 0 19.4388 0C30.1746 0 38.8777 8.70307 38.8777 19.4388Z" fill="url(#paint0_linear_402_42)"/>
<path d="M36.3595 41.446L16.2156 38.7266L38.5249 16.4172L41.4458 35.2518L36.3595 41.446Z" fill="url(#paint1_linear_402_42)" fill-opacity="0.32"/>
<ellipse cx="37.7697" cy="37.2663" rx="4.73381" ry="4.73381" fill="url(#paint2_linear_402_42)"/>
<mask id="mask0_402_42" style="mask-type:alpha" maskUnits="userSpaceOnUse" x="33" y="32" width="10" height="10">
<ellipse cx="37.7697" cy="37.2663" rx="4.73381" ry="4.73381" fill="url(#paint3_linear_402_42)"/>
</mask>
<g mask="url(#mask0_402_42)">
<g filter="url(#filter0_f_402_42)">
<path d="M46.0289 41.708C46.0289 45.6815 42.8047 48.9026 38.8274 48.9026C34.8502 48.9026 31.626 45.6815 31.626 41.708C31.626 39.897 32.2957 37.8308 33.4013 36.1182C34.7214 34.0733 36.6629 32.5325 38.8274 32.5325C40.9555 32.5325 40.4083 36.1315 41.7266 38.1251C42.8722 39.8573 46.0289 39.8606 46.0289 41.708Z" fill="#0B80BD"/>
</g>
</g>
<mask id="mask1_402_42" style="mask-type:alpha" maskUnits="userSpaceOnUse" x="0" y="0" width="39" height="39">
<circle cx="19.4389" cy="19.4389" r="19.4389" fill="url(#paint4_linear_402_42)"/>
</mask>
<g mask="url(#mask1_402_42)">
<g filter="url(#filter1_f_402_42)">
<circle cx="25.3998" cy="16.3352" r="6.92129" transform="rotate(135 25.3998 16.3352)" fill="#FF3333"/>
</g>
<g filter="url(#filter2_f_402_42)">
<circle cx="10.5218" cy="22.6655" r="17.4582" transform="rotate(135 10.5218 22.6655)" fill="url(#paint5_linear_402_42)"/>
</g>
<g filter="url(#filter3_f_402_42)">
<path d="M14.1965 12.5475C7.51391 14.7821 7.26156 22.456 0.440556 24.2224C-11.5287 27.322 2.22347 -1.01077 14.1406 -4.30542C19.1345 -5.68605 22.6354 -5.67968 27.3868 -3.62296C36.0103 0.109857 43.8849 10.1558 38.3713 17.7709C32.7055 25.5964 23.3612 9.48293 14.1965 12.5475Z" fill="#4ACFFF"/>
</g>
</g>
<path d="M74.0803 35.0199H68.7285L65.9048 30.7843C65.7515 30.8062 65.6038 30.8172 65.4615 30.8172C65.3302 30.8172 65.1988 30.8172 65.0675 30.8172C63.9512 30.8172 62.8731 30.6694 61.8334 30.3739C60.8046 30.0894 59.836 29.6844 58.9276 29.1591C58.0302 28.6228 57.2093 27.9825 56.4651 27.2383C55.7209 26.4941 55.0806 25.6732 54.5443 24.7758C54.019 23.8674 53.6086 22.8988 53.3131 21.87C53.0285 20.8303 52.8862 19.7522 52.8862 18.6359C52.8862 17.5196 53.0285 16.4415 53.3131 15.4018C53.6086 14.3621 54.019 13.3935 54.5443 12.496C55.0806 11.5986 55.7209 10.7777 56.4651 10.0335C57.2093 9.28926 58.0302 8.65448 58.9276 8.12914C59.836 7.6038 60.8046 7.19885 61.8334 6.91429C62.8731 6.61879 63.9512 6.47104 65.0675 6.47104C66.1839 6.47104 67.2619 6.61879 68.3016 6.91429C69.3414 7.19885 70.3099 7.6038 71.2074 8.12914C72.1049 8.65448 72.9257 9.28926 73.6699 10.0335C74.4142 10.7777 75.0489 11.5986 75.5743 12.496C76.0996 13.3935 76.5046 14.3621 76.7891 15.4018C77.0846 16.4415 77.2324 17.5196 77.2324 18.6359C77.2324 19.796 77.0682 20.9233 76.7399 22.0178C76.4225 23.1122 75.9683 24.1355 75.3773 25.0877C74.7863 26.0289 74.0694 26.8826 73.2267 27.6487C72.3949 28.4149 71.4646 29.0551 70.4358 29.5695L74.0803 35.0199ZM72.5536 18.6359C72.5536 17.6071 72.3566 16.6385 71.9626 15.7301C71.5686 14.8108 71.0323 14.0173 70.3537 13.3497C69.6861 12.6711 68.8926 12.1348 67.9733 11.7408C67.0649 11.3468 66.0963 11.1498 65.0675 11.1498C64.0278 11.1498 63.0537 11.3468 62.1453 11.7408C61.2369 12.1348 60.4434 12.6711 59.7649 13.3497C59.0863 14.0173 58.55 14.8108 58.156 15.7301C57.762 16.6385 57.565 17.6071 57.565 18.6359C57.565 19.6647 57.762 20.6333 58.156 21.5417C58.55 22.4391 59.0863 23.2271 59.7649 23.9057C60.4434 24.5843 61.2369 25.1205 62.1453 25.5145C63.0537 25.9086 64.0278 26.1056 65.0675 26.1056C66.0963 26.1056 67.0649 25.9086 67.9733 25.5145C68.8926 25.1205 69.6861 24.5843 70.3537 23.9057C71.0323 23.2271 71.5686 22.4391 71.9626 21.5417C72.3566 20.6333 72.5536 19.6647 72.5536 18.6359Z" fill="black"/>
<path d="M92.7791 28.2562C92.4179 28.5845 92.0294 28.8964 91.6135 29.1919C91.2086 29.4765 90.7817 29.7282 90.333 29.9471C89.8843 30.155 89.4191 30.3192 88.9376 30.4396C88.4669 30.5709 87.9854 30.6366 87.4929 30.6366C86.4094 30.6366 85.3915 30.4451 84.4394 30.062C83.4872 29.6789 82.6499 29.1372 81.9276 28.4367C81.2162 27.7253 80.6525 26.8662 80.2366 25.8593C79.8317 24.8415 79.6292 23.7032 79.6292 22.4446V12.7258H84.0946V22.4446C84.0946 23.0356 84.1822 23.5664 84.3573 24.037C84.5433 24.4967 84.7896 24.8852 85.096 25.2026C85.4025 25.52 85.7582 25.7608 86.1631 25.925C86.579 26.0891 87.0223 26.1712 87.4929 26.1712C87.9526 26.1712 88.3849 26.0672 88.7898 25.8593C89.2057 25.6404 89.5669 25.3559 89.8733 25.0056C90.1798 24.6554 90.4205 24.2614 90.5957 23.8236C90.7708 23.3749 90.8583 22.9152 90.8583 22.4446V12.7258H95.3401V30.3083H94.2566L92.7791 28.2562Z" fill="black"/>
<path d="M115.763 21.3611C115.763 22.6744 115.527 23.9002 115.057 25.0385C114.586 26.1658 113.946 27.1453 113.136 27.9771C112.326 28.7979 111.374 29.4491 110.279 29.9307C109.196 30.4013 108.03 30.6366 106.783 30.6366C105.546 30.6366 104.38 30.4013 103.286 29.9307C102.202 29.4491 101.25 28.7979 100.429 27.9771C99.6194 27.1453 98.9792 26.1658 98.5086 25.0385C98.038 23.9002 97.8026 22.6744 97.8026 21.3611C97.8026 20.0259 98.038 18.7891 98.5086 17.6509C98.9792 16.5127 99.6194 15.5331 100.429 14.7123C101.25 13.8805 102.202 13.2293 103.286 12.7587C104.38 12.2881 105.546 12.0528 106.783 12.0528C108.03 12.0528 109.196 12.2771 110.279 12.7258C111.374 13.1636 112.326 13.7929 113.136 14.6138C113.946 15.4237 114.586 16.4032 115.057 17.5524C115.527 18.6906 115.763 19.9602 115.763 21.3611ZM111.248 21.3611C111.248 20.6388 111.128 19.9876 110.887 19.4075C110.657 18.8165 110.34 18.313 109.935 17.8971C109.53 17.4703 109.054 17.1474 108.506 16.9286C107.97 16.6987 107.396 16.5838 106.783 16.5838C106.17 16.5838 105.59 16.6987 105.042 16.9286C104.506 17.1474 104.036 17.4703 103.631 17.8971C103.237 18.313 102.925 18.8165 102.695 19.4075C102.465 19.9876 102.35 20.6388 102.35 21.3611C102.35 22.0397 102.465 22.669 102.695 23.249C102.925 23.8291 103.237 24.3325 103.631 24.7594C104.036 25.1862 104.506 25.5255 105.042 25.7772C105.59 26.018 106.17 26.1384 106.783 26.1384C107.396 26.1384 107.97 26.0235 108.506 25.7936C109.054 25.5638 109.53 25.2409 109.935 24.825C110.34 24.4092 110.657 23.9057 110.887 23.3147C111.128 22.7237 111.248 22.0725 111.248 21.3611Z" fill="black"/>
<path d="M126.926 30.3083C125.843 30.3083 124.825 30.1058 123.873 29.7008C122.92 29.2849 122.083 28.7213 121.361 28.0099C120.649 27.2876 120.086 26.4503 119.67 25.4981C119.265 24.546 119.062 23.5281 119.062 22.4446V17.2241H116.879V12.7587H119.062V5.73228H123.528V12.7587H130.324V17.2241H123.528V22.4446C123.528 22.9152 123.615 23.3585 123.79 23.7744C123.966 24.1793 124.206 24.535 124.513 24.8415C124.819 25.1479 125.18 25.3942 125.596 25.5802C126.012 25.7553 126.455 25.8429 126.926 25.8429H130.324V30.3083H126.926Z" fill="black"/>
<path d="M149.877 30.3083H148.793L147.053 27.895C146.626 28.278 146.172 28.6392 145.69 28.9785C145.22 29.3068 144.722 29.5969 144.197 29.8486C143.671 30.0894 143.129 30.2809 142.571 30.4232C142.024 30.5655 141.466 30.6366 140.897 30.6366C139.66 30.6366 138.494 30.4286 137.4 30.0128C136.316 29.5969 135.364 28.9949 134.543 28.2069C133.734 27.408 133.093 26.4339 132.623 25.2847C132.152 24.1355 131.917 22.8277 131.917 21.3611C131.917 19.993 132.152 18.7399 132.623 17.6016C133.093 16.4525 133.734 15.4675 134.543 14.6466C135.364 13.8258 136.316 13.191 137.4 12.7423C138.494 12.2826 139.66 12.0528 140.897 12.0528C141.466 12.0528 142.03 12.1239 142.588 12.2662C143.146 12.4085 143.688 12.6055 144.213 12.8572C144.738 13.1089 145.236 13.4044 145.707 13.7437C146.188 14.083 146.637 14.4496 147.053 14.8436L148.793 12.7587H149.877V30.3083ZM145.362 21.3611C145.362 20.7482 145.242 20.1572 145.001 19.5881C144.771 19.008 144.454 18.4991 144.049 18.0613C143.644 17.6126 143.168 17.2569 142.621 16.9942C142.084 16.7206 141.51 16.5838 140.897 16.5838C140.284 16.5838 139.704 16.6878 139.157 16.8957C138.62 17.1037 138.15 17.4101 137.745 17.8151C137.351 18.22 137.039 18.7235 136.809 19.3254C136.579 19.9164 136.464 20.595 136.464 21.3611C136.464 22.1272 136.579 22.8112 136.809 23.4132C137.039 24.0042 137.351 24.5022 137.745 24.9071C138.15 25.3121 138.62 25.6185 139.157 25.8265C139.704 26.0344 140.284 26.1384 140.897 26.1384C141.51 26.1384 142.084 26.0071 142.621 25.7444C143.168 25.4708 143.644 25.1151 144.049 24.6773C144.454 24.2286 144.771 23.7196 145.001 23.1505C145.242 22.5705 145.362 21.974 145.362 21.3611Z" fill="black"/>
<path d="M157.823 30.3083H153.308V5.73228H157.823V30.3083Z" fill="black"/>
<path d="M178.245 21.3611C178.245 22.6744 178.01 23.9002 177.539 25.0385C177.069 26.1658 176.428 27.1453 175.618 27.9771C174.808 28.7979 173.856 29.4491 172.762 29.9307C171.678 30.4013 170.513 30.6366 169.265 30.6366C168.028 30.6366 166.863 30.4013 165.768 29.9307C164.685 29.4491 163.733 28.7979 162.912 27.9771C162.102 27.1453 161.462 26.1658 160.991 25.0385C160.52 23.9002 160.285 22.6744 160.285 21.3611C160.285 20.0259 160.52 18.7891 160.991 17.6509C161.462 16.5127 162.102 15.5331 162.912 14.7123C163.733 13.8805 164.685 13.2293 165.768 12.7587C166.863 12.2881 168.028 12.0528 169.265 12.0528C170.513 12.0528 171.678 12.2771 172.762 12.7258C173.856 13.1636 174.808 13.7929 175.618 14.6138C176.428 15.4237 177.069 16.4032 177.539 17.5524C178.01 18.6906 178.245 19.9602 178.245 21.3611ZM173.73 21.3611C173.73 20.6388 173.61 19.9876 173.369 19.4075C173.139 18.8165 172.822 18.313 172.417 17.8971C172.012 17.4703 171.536 17.1474 170.989 16.9286C170.453 16.6987 169.878 16.5838 169.265 16.5838C168.652 16.5838 168.072 16.6987 167.525 16.9286C166.989 17.1474 166.518 17.4703 166.113 17.8971C165.719 18.313 165.407 18.8165 165.177 19.4075C164.947 19.9876 164.833 20.6388 164.833 21.3611C164.833 22.0397 164.947 22.669 165.177 23.249C165.407 23.8291 165.719 24.3325 166.113 24.7594C166.518 25.1862 166.989 25.5255 167.525 25.7772C168.072 26.018 168.652 26.1384 169.265 26.1384C169.878 26.1384 170.453 26.0235 170.989 25.7936C171.536 25.5638 172.012 25.2409 172.417 24.825C172.822 24.4092 173.139 23.9057 173.369 23.3147C173.61 22.7237 173.73 22.0725 173.73 21.3611Z" fill="black"/>
<path d="M193.234 21.3611C193.234 20.7482 193.113 20.1572 192.872 19.5881C192.643 19.008 192.325 18.4991 191.92 18.0613C191.515 17.6126 191.039 17.2569 190.492 16.9942C189.956 16.7206 189.381 16.5838 188.768 16.5838C188.155 16.5838 187.575 16.6878 187.028 16.8957C186.492 17.1037 186.021 17.4101 185.616 17.8151C185.222 18.22 184.91 18.7235 184.68 19.3254C184.451 19.9164 184.336 20.595 184.336 21.3611C184.336 22.0944 184.451 22.7565 184.68 23.3475C184.91 23.9276 185.222 24.4256 185.616 24.8415C186.021 25.2574 186.492 25.5802 187.028 25.8101C187.575 26.0289 188.155 26.1384 188.768 26.1384C189.381 26.1384 189.956 26.0071 190.492 25.7444C191.039 25.4708 191.515 25.1151 191.92 24.6773C192.325 24.2286 192.643 23.7196 192.872 23.1505C193.113 22.5705 193.234 21.974 193.234 21.3611ZM197.748 28.092C197.748 29.3287 197.513 30.4888 197.042 31.5724C196.572 32.6559 195.926 33.6026 195.105 34.4125C194.295 35.2224 193.343 35.8626 192.249 36.3332C191.165 36.8038 190.005 37.0392 188.768 37.0392L186.519 37.0063V32.5245L188.735 32.5574C189.436 32.5574 190.032 32.4643 190.525 32.2783C191.017 32.1032 191.433 31.8569 191.773 31.5395C192.112 31.2331 192.38 30.8774 192.577 30.4724C192.785 30.0675 192.949 29.6406 193.069 29.1919C192.894 29.4765 192.643 29.7118 192.314 29.8978C191.986 30.073 191.619 30.2152 191.214 30.3247C190.82 30.4451 190.404 30.5272 189.967 30.5709C189.54 30.6147 189.14 30.6366 188.768 30.6366C187.531 30.6366 186.366 30.4232 185.271 29.9963C184.188 29.5695 183.236 28.9621 182.415 28.1741C181.605 27.3751 180.965 26.4011 180.494 25.2519C180.024 24.1027 179.788 22.8058 179.788 21.3611C179.788 20.0368 180.024 18.8055 180.494 17.6673C180.965 16.5291 181.605 15.5441 182.415 14.7123C183.236 13.8805 184.188 13.2293 185.271 12.7587C186.366 12.2881 187.531 12.0528 188.768 12.0528C189.337 12.0528 189.901 12.1239 190.459 12.2662C191.017 12.4085 191.559 12.6055 192.084 12.8572C192.61 13.1089 193.108 13.4044 193.578 13.7437C194.06 14.083 194.509 14.4496 194.925 14.8436L196.665 12.7587H197.748V28.092Z" fill="black"/>
<path d="M206.466 7.94855C206.466 8.36445 206.383 8.75298 206.219 9.11415C206.066 9.47532 205.853 9.79271 205.579 10.0663C205.305 10.329 204.983 10.5424 204.61 10.7066C204.249 10.8598 203.861 10.9364 203.445 10.9364C203.029 10.9364 202.635 10.8598 202.263 10.7066C201.902 10.5424 201.584 10.329 201.311 10.0663C201.048 9.79271 200.835 9.47532 200.67 9.11415C200.517 8.75298 200.441 8.36445 200.441 7.94855C200.441 7.54361 200.517 7.16055 200.67 6.79938C200.835 6.42726 201.048 6.10987 201.311 5.8472C201.584 5.57359 201.902 5.36017 202.263 5.20695C202.635 5.04278 203.029 4.96069 203.445 4.96069C203.861 4.96069 204.249 5.04278 204.61 5.20695C204.983 5.36017 205.305 5.57359 205.579 5.8472C205.853 6.10987 206.066 6.42726 206.219 6.79938C206.383 7.16055 206.466 7.54361 206.466 7.94855ZM205.694 30.3083H201.179V12.7258H205.694V30.3083Z" fill="black"/>
<path d="M224.491 16.2226L221.208 19.5224C221.044 19.0627 220.819 18.6523 220.535 18.2911C220.25 17.919 219.927 17.6071 219.566 17.3554C219.216 17.1037 218.833 16.9121 218.417 16.7808C218.001 16.6495 217.574 16.5838 217.136 16.5838C216.524 16.5838 215.944 16.7097 215.396 16.9614C214.86 17.2131 214.389 17.5688 213.984 18.0285C213.59 18.4772 213.279 19.0135 213.049 19.6373C212.819 20.2612 212.704 20.9507 212.704 21.7058C212.704 22.3187 212.819 22.8933 213.049 23.4296C213.279 23.9659 213.59 24.4365 213.984 24.8415C214.389 25.2464 214.86 25.5638 215.396 25.7936C215.944 26.0235 216.524 26.1384 217.136 26.1384C217.574 26.1384 217.996 26.0782 218.401 25.9578C218.806 25.8374 219.183 25.6678 219.533 25.4489C219.895 25.219 220.212 24.9454 220.486 24.628C220.77 24.2997 221 23.9385 221.175 23.5445L224.458 26.8443C224.042 27.4353 223.561 27.9661 223.014 28.4367C222.477 28.9074 221.892 29.3068 221.257 29.6352C220.633 29.9635 219.971 30.2098 219.271 30.3739C218.581 30.549 217.87 30.6366 217.136 30.6366C215.9 30.6366 214.734 30.4068 213.64 29.9471C212.556 29.4765 211.604 28.8362 210.783 28.0263C209.973 27.2164 209.333 26.2697 208.862 25.1862C208.392 24.1027 208.156 22.9426 208.156 21.7058C208.156 20.3597 208.392 19.101 208.862 17.93C209.333 16.7589 209.973 15.7411 210.783 14.8765C211.604 14.0009 212.556 13.3114 213.64 12.8079C214.734 12.3045 215.9 12.0528 217.136 12.0528C217.87 12.0528 218.587 12.1458 219.287 12.3318C219.998 12.5179 220.672 12.7915 221.306 13.1527C221.952 13.5029 222.543 13.9352 223.079 14.4496C223.627 14.964 224.097 15.555 224.491 16.2226Z" fill="black"/>
<defs>
<filter id="filter0_f_402_42" x="3.47559" y="4.38208" width="70.7036" height="72.6709" filterUnits="userSpaceOnUse" color-interpolation-filters="sRGB">
<feFlood flood-opacity="0" result="BackgroundImageFix"/>
<feBlend mode="normal" in="SourceGraphic" in2="BackgroundImageFix" result="shape"/>
<feGaussianBlur stdDeviation="14.0752" result="effect1_foregroundBlur_402_42"/>
</filter>
<filter id="filter1_f_402_42" x="-20.941" y="-30.0057" width="92.6816" height="92.6819" filterUnits="userSpaceOnUse" color-interpolation-filters="sRGB">
<feFlood flood-opacity="0" result="BackgroundImageFix"/>
<feBlend mode="normal" in="SourceGraphic" in2="BackgroundImageFix" result="shape"/>
<feGaussianBlur stdDeviation="19.7098" result="effect1_foregroundBlur_402_42"/>
</filter>
<filter id="filter2_f_402_42" x="-46.3558" y="-34.2123" width="113.755" height="113.756" filterUnits="userSpaceOnUse" color-interpolation-filters="sRGB">
<feFlood flood-opacity="0" result="BackgroundImageFix"/>
<feBlend mode="normal" in="SourceGraphic" in2="BackgroundImageFix" result="shape"/>
<feGaussianBlur stdDeviation="19.7098" result="effect1_foregroundBlur_402_42"/>
</filter>
<filter id="filter3_f_402_42" x="-51.8552" y="-52.9495" width="139.743" height="125.092" filterUnits="userSpaceOnUse" color-interpolation-filters="sRGB">
<feFlood flood-opacity="0" result="BackgroundImageFix"/>
<feBlend mode="normal" in="SourceGraphic" in2="BackgroundImageFix" result="shape"/>
<feGaussianBlur stdDeviation="23.8417" result="effect1_foregroundBlur_402_42"/>
</filter>
<linearGradient id="paint0_linear_402_42" x1="50.5995" y1="37.4437" x2="-47.0576" y2="-11.1319" gradientUnits="userSpaceOnUse">
<stop stop-color="#0B80BD" stop-opacity="0.2"/>
<stop offset="1" stop-color="white" stop-opacity="0"/>
</linearGradient>
<linearGradient id="paint1_linear_402_42" x1="55.194" y1="53.482" x2="27.6472" y2="27.446" gradientUnits="userSpaceOnUse">
<stop stop-color="#0B80BD"/>
<stop offset="1" stop-color="#0034D1" stop-opacity="0"/>
</linearGradient>
<linearGradient id="paint2_linear_402_42" x1="52.2229" y1="49.1008" x2="28.2014" y2="28.6548" gradientUnits="userSpaceOnUse">
<stop stop-color="#FF41F2"/>
<stop offset="1" stop-color="white"/>
</linearGradient>
<linearGradient id="paint3_linear_402_42" x1="52.2229" y1="49.1008" x2="28.2014" y2="28.6548" gradientUnits="userSpaceOnUse">
<stop stop-color="#FF41F2"/>
<stop offset="1" stop-color="white"/>
</linearGradient>
<linearGradient id="paint4_linear_402_42" x1="39.7338" y1="38.8777" x2="1.25899" y2="3.6259" gradientUnits="userSpaceOnUse">
<stop stop-color="white"/>
<stop offset="1" stop-color="#0B80BD"/>
</linearGradient>
<linearGradient id="paint5_linear_402_42" x1="10.5218" y1="5.20735" x2="10.5218" y2="40.1237" gradientUnits="userSpaceOnUse">
<stop stop-color="#FFD8FC"/>
<stop offset="1" stop-color="#FF41F2"/>
</linearGradient>
</defs>
</svg>
