<svg width="200" height="100" viewBox="0 0 200 100" fill="none" xmlns="http://www.w3.org/2000/svg">
<path fill-rule="evenodd" clip-rule="evenodd" d="M154.6 40.6001C154.6 37.6001 157.1 35.1001 160.1 35.1001C163.1 35.1001 165.6 37.6001 165.6 40.6001C165.6 43.6001 163.1 46.1001 160.1 46.1001C157.1 46.1001 154.6 43.7001 154.6 40.6001Z" fill="#EC1B2E"/>
<path fill-rule="evenodd" clip-rule="evenodd" d="M130.7 65.3001H137C137.1 65.3001 137.3 65.3001 137.4 65.2001L152.5 47.6001C152.6 47.5001 152.8 47.3001 152.8 47.3001C152.8 47.2001 152.7 47.1001 152.4 47.1001H147.7C147.6 47.1001 147.4 47.1001 147.3 47.2001L137.1 59.0001L132 47.2001C131.9 47.1001 131.8 47.1001 131.7 47.1001H123C122.6 47.1001 122.5 47.2001 122.5 47.5001C122.5 47.5001 124.7 53.2001 130.5 65.3001C130.5 65.3001 130.6 65.3001 130.7 65.3001Z" fill="#0749CA"/>
<path fill-rule="evenodd" clip-rule="evenodd" d="M95 65.3C101.3 65.3 104.6 63.9 104.6 59.1C104.6 57.4 103.7 55.6 101.9 53.6L94.6 45.5H111.7C112.1 45.5 112.3 45.4 112.4 45.1L113.6 41.7V41.6C113.6 41.4 113.5 41.3 113.2 41.3H93.6C88.1 41.3 83.1 41.3 83.1 48.2C83.1 49.7 83.8 51.8 85.2 53.3L92.6 61.2H76.5C76.1 61.2 75.9 61.3 75.8 61.7L74.6 64.9C74.6 65 74.6 65 74.5 65C74.5 65.2 74.6 65.3 74.9 65.3H95Z" fill="#0749CA"/>
<path fill-rule="evenodd" clip-rule="evenodd" d="M113.8 65.3C114.1 65.3 114.2 65.2 114.3 65C115.3 62.3 120.4 48.3 120.7 47.3C120.8 47.1 120.6 47 120.4 47H112.2C111.9 47 111.8 47.1 111.7 47.3C111.2 48.7 105.3 64.8 105.2 65.1C105.2 65.3 105.3 65.3 105.5 65.3H113.8Z" fill="#0749CA"/>
<path fill-rule="evenodd" clip-rule="evenodd" d="M155.7 65.3C156 65.3 156.1 65.2 156.2 65C157.2 62.3 162.3 48.3 162.6 47.3C162.7 47.1 162.5 47 162.3 47H154.1C153.8 47 153.7 47.1 153.6 47.3C153.1 48.7 147.2 64.8 147.1 65.1C147.1 65.3 147.2 65.3 147.4 65.3H155.7Z" fill="#0749CA"/>
<path fill-rule="evenodd" clip-rule="evenodd" d="M167.4 65.3H159.1C158.9 65.3 158.8 65.2 158.8 65C159 64.4 165.9 45.5 169 37.1C169.1 36.9 169.3 36.8 169.5 36.8H177.8C178 36.8 178.1 36.9 178.1 37C177.7 38 173.2 50.5 172.2 53.3L184 47C184.1 46.9 184.2 46.9 184.3 46.9H189.8C190 46.9 190.2 47 190.2 47.1C190.2 47.2 190.1 47.4 189.9 47.5L178.6 53.7C182.9 61.2 185 64.8 185 64.8C185 65.1 184.8 65.2 184.5 65.2H175.8C175.7 65.2 175.6 65.2 175.5 65.1L171 56.9C170.2 59.1 168.9 62.6 168.1 64.9C167.8 65.2 167.7 65.3 167.4 65.3Z" fill="#0749CA"/>
<path fill-rule="evenodd" clip-rule="evenodd" d="M58.3 38.1H36.2C30.8 38.1 25.9 38.1 25.8 44.9C25.8 46.4 26.5 48.5 27.9 49.9L35.2 57.7H16C14.4 55.4 13.5 52.7 13.5 49.9C13.5 40.5 23.8 32.8 36.5 32.8C40.7 32.8 44.6 33.6 48 35.1H55C50.1 31.4 43.4 29.3 36.5 29.3C22.9 29.4 10 37.7 10 50C10 54.6 11.8 58.6 14.7 61.9H37.5C43.7 61.9 47 60.5 47 55.8C47 54.1 46.1 52.3 44.3 50.4L37.1 42.4H57C58.6 44.7 59.4 47.3 59.4 50.1C59.4 59.5 49.1 67.2 36.4 67.2C32.2 67.2 28.3 66.4 24.9 64.9H17.9C22.8 68.6 29.5 70.7 36.4 70.7C50 70.7 62.9 62.4 62.9 50.1C63 45.4 61.2 41.4 58.3 38.1Z" fill="#0749CA"/>
</svg>
