<svg width="200" height="100" viewBox="0 0 200 100" fill="none" xmlns="http://www.w3.org/2000/svg">
<path d="M21.2002 37.5999H28.9002V56.2999H40.9002V62.3999H21.2002V37.5999Z" fill="#EC1E24"/>
<path d="M59.6004 58.2999H50.9004L49.7004 62.3999H41.9004L51.2004 37.5999H59.6004L68.9004 62.3999H60.9004L59.6004 58.2999ZM58.0004 52.8999L55.3004 43.9999L52.6004 52.8999H58.0004Z" fill="#EC1E24"/>
<path d="M86.3001 37.5999H94.0001V52.3999C94.0001 53.8999 93.8001 55.2999 93.3001 56.5999C92.8001 57.8999 92.1001 58.9999 91.1001 59.9999C90.1001 60.9999 89.1001 61.6999 88.0001 62.0999C86.5001 62.6999 84.7001 62.8999 82.6001 62.8999C81.4001 62.8999 80.1001 62.7999 78.6001 62.5999C77.2001 62.3999 76.0001 62.0999 75.0001 61.5999C74.0001 61.0999 73.2001 60.3999 72.4001 59.4999C71.6001 58.5999 71.1001 57.5999 70.8001 56.5999C70.3001 54.9999 70.1001 53.5999 70.1001 52.3999V37.5999H77.8001V52.7999C77.8001 54.1999 78.2001 55.1999 78.9001 55.9999C79.7001 56.7999 80.7001 57.0999 82.0001 57.0999C83.3001 57.0999 84.4001 56.6999 85.1001 55.9999C85.9001 55.1999 86.2001 54.1999 86.2001 52.7999V37.5999H86.3001Z" fill="#EC1E24"/>
<path d="M99.1001 37.5999H106.3L115.7 51.2999V37.5999H122.9V62.3999H115.7L106.4 48.7999V62.3999H99.2001V37.5999H99.1001Z" fill="#EC1E24"/>
<path d="M144.5 52.3L151.2 54.3C150.7 56.2 150 57.8 149.1 59C148.1 60.3 146.9 61.2 145.5 61.9C144.1 62.5 142.2 62.9 140 62.9C137.3 62.9 135.1 62.5 133.4 61.7C131.7 60.9 130.2 59.5 129 57.6C127.8 55.6 127.1 53.1 127.1 50C127.1 45.9 128.2 42.7 130.4 40.5C132.6 38.3 135.7 37.2 139.7 37.2C142.8 37.2 145.3 37.8 147.1 39.1C148.9 40.4 150.2 42.3 151.1 44.9L144.3 46.4C144.1 45.6 143.8 45.1 143.6 44.7C143.2 44.1 142.6 43.7 142 43.3C141.4 43 140.7 42.8 139.9 42.8C138.2 42.8 136.8 43.5 135.9 44.9C135.2 45.9 134.8 47.6 134.8 49.8C134.8 52.6 135.2 54.4 136.1 55.5C136.9 56.5 138.1 57 139.6 57C141.1 57 142.2 56.6 142.9 55.8C143.7 55 144.2 53.8 144.5 52.3Z" fill="#EC1E24"/>
<path d="M155 37.5999H162.7V46.2999H171.1V37.5999H178.8V62.3999H171.1V52.2999H162.7V62.3999H155V37.5999Z" fill="#EC1E24"/>
</svg>
