<svg width="200" height="100" viewBox="0 0 200 100" fill="none" xmlns="http://www.w3.org/2000/svg">
<path fill-rule="evenodd" clip-rule="evenodd" d="M29.7 53.4C31.3 53.4 32.7 52.1 32.7 50.4C32.7 48.8 31.4 47.4 29.7 47.4C28.1 47.4 26.7 48.7 26.7 50.4C26.7 52.1 28.1 53.4 29.7 53.4ZM34.6 54.4L37.6 58.5L34.9 60.5L31.9 56.4C31.2 56.7 30.5 56.8 29.7 56.8C29 56.8 28.3 56.7 27.6 56.4L24.7 60.4L22 58.4L24.9 54.4C24 53.3 23.4 51.9 23.4 50.3C23.4 50.2 23.4 50.2 23.4 50.1L18.8 48.6L19.8 45.4L24.4 46.9C25.2 45.6 26.6 44.6 28.1 44.2V39.4H31.5V44.2C33 44.6 34.3 45.6 35.1 46.9L39.8 45.4L40.8 48.6L36.1 50.1C36.1 50.2 36.1 50.2 36.1 50.3C36 52 35.5 53.3 34.6 54.4ZM42.3 71.3C38.6 66.4 34.2 63.8 29.7 63.8C25.2 63.8 20.9 66.4 17.1 71.3L20.2 73.7C23.2 69.8 26.4 67.8 29.7 67.8C32.9 67.8 36.2 69.9 39.2 73.7L42.3 71.3ZM22 39.9C25.6 37.2 27.6 32.6 27.8 26.4L23.9 26.3C23.8 31.2 22.4 34.8 19.7 36.7C17.1 38.6 13.2 38.9 8.6 37.5L7.5 41.3C9.8 42 12 42.4 14.1 42.4C17.1 42.3 19.8 41.5 22 39.9ZM52.1 41.2L51 37.5C46.3 38.9 42.5 38.6 39.9 36.7C37.3 34.8 35.8 31.2 35.7 26.3L31.8 26.4C31.9 32.5 33.9 37.2 37.6 39.9C39.8 41.5 42.5 42.3 45.6 42.3C47.5 42.3 49.7 41.9 52.1 41.2ZM48.7 66.8C45.9 62.8 45 59 46 55.9C47 52.8 50 50.3 54.6 48.8L53.3 45.1C47.5 47.1 43.7 50.4 42.3 54.7C40.9 59 42 63.9 45.5 69L48.7 66.8ZM14.1 69L10.9 66.8C13.7 62.8 14.6 59 13.6 55.9C12.6 52.8 9.6 50.3 5 48.8L6.3 45.1C12.1 47.1 15.9 50.4 17.3 54.7C18.6 59 17.5 63.9 14.1 69Z" fill="#8A80FF"/>
<path fill-rule="evenodd" clip-rule="evenodd" d="M142.4 57.7C145.4 57.7 147.5 60.1 147.5 63.3C147.5 66.5 145.4 68.9 142.6 68.9C141 68.9 140 68.4 139.3 67.8V72.9H136.3V58H139.3V59.1C139.9 58.4 140.9 57.7 142.4 57.7ZM118.7 57.7C120.6 57.7 121.7 58.4 121.7 58.4V61C121.7 61 120.7 60.4 119.1 60.4C117.5 60.4 115.9 61.3 115.9 63.4C115.9 65.5 117.6 66.4 119.1 66.4C120.8 66.4 121.8 65.7 121.8 65.7V68.3C121.8 68.3 120.6 69.1 118.6 69.1C116.4 69.1 113 67.7 113 63.5C113.1 59.4 116.3 57.7 118.7 57.7ZM180 57.7C181.9 57.7 183 58.4 183 58.4V61C183 61 182 60.4 180.4 60.4C178.8 60.4 177.2 61.3 177.2 63.4C177.2 65.5 178.9 66.4 180.4 66.4C182.1 66.4 183.1 65.7 183.1 65.7V68.3C183.1 68.3 181.9 69.1 179.9 69.1C177.7 69.1 174.3 67.7 174.3 63.5C174.3 59.4 177.5 57.7 180 57.7ZM69.8002 57.7C73.1002 57.7 74.7002 59.3 74.7002 62.2V68.5H71.9002V67.8C71.2002 68.3 70.2002 68.8 68.7002 68.8C66.8002 68.8 64.8002 67.7 64.8002 65.2C64.8002 62.7 67.0002 61.7 69.4002 61.7C70.3002 61.7 71.1002 61.9 71.8002 62.1C71.8002 60.2 69.9002 60.1 69.1002 60.1C67.2002 60.1 65.9002 61 65.9002 61V58.5C65.9002 58.6 67.2002 57.7 69.8002 57.7ZM129.1 57.7C132.2 57.7 134 60.1 134 63.3V64.1H126.7C126.7 64.1 126.9 66.3 130.1 66.3C131.9 66.3 133.4 65.4 133.4 65.4V67.8C133.4 67.8 132.2 68.9 129.5 68.9C126.6 68.9 123.7 67 123.7 63.3C123.7 59.8 126.1 57.7 129.1 57.7ZM105.4 57.7C109.1 57.7 111.2 60.5 111.2 63.3C111.2 66.2 109.1 68.9 105.4 68.9C101.7 68.9 99.6002 66.2 99.6002 63.3C99.6002 60.4 101.7 57.7 105.4 57.7ZM190.1 57.6C193.4 57.6 195 59.2 195 62.1V68.4H192.2V67.7C191.5 68.2 190.5 68.7 189 68.7C187.1 68.7 185.1 67.6 185.1 65.1C185.1 62.6 187.3 61.6 189.7 61.6C190.6 61.6 191.4 61.8 192.1 62C192.1 60.1 190.2 60 189.4 60C187.5 60 186.2 60.9 186.2 60.9V58.4C186.2 58.5 187.5 57.6 190.1 57.6ZM164.8 58V64.3L169.3 58H172.1V68.6H169.1V62.3L164.6 68.6H161.8V58H164.8ZM83.4002 58C85.6002 58 86.8002 59.1 86.8002 60.7C86.8002 62.5 85.5002 63 85.5002 63C85.5002 63 87.5002 63.5 87.5002 65.7C87.5002 67.9 85.4002 68.6 83.6002 68.6H77.6002V58H83.4002ZM98.4002 58V60.5H95.2002V68.6H92.2002V60.5H89.0002V58H98.4002ZM155.5 58C157.7 58 158.9 59.1 158.9 60.7C158.9 62.5 157.6 63 157.6 63C157.6 63 159.6 63.5 159.6 65.7C159.6 67.9 157.5 68.6 155.7 68.6H149.7V58H155.5ZM69.5002 63.8C68.0002 63.8 67.7002 64.8 67.7002 65.2C67.7002 65.6 67.8002 66.6 69.6002 66.6C70.6002 66.6 71.3002 66.2 71.7002 65.7V64.4C71.3002 64.1 70.5002 63.8 69.5002 63.8ZM82.9002 64.1H80.6002V66.5H82.9002C83.8002 66.5 84.5002 66.2 84.5002 65.3C84.5002 64.4 83.8002 64.1 82.9002 64.1ZM155 64.1H152.7V66.5H155C155.9 66.5 156.6 66.2 156.6 65.3C156.5 64.4 155.8 64.1 155 64.1ZM189.8 63.7C188.3 63.7 188 64.7 188 65.1C188 65.5 188.1 66.5 189.9 66.5C190.9 66.5 191.6 66.1 192 65.6V64.3C191.6 64 190.9 63.7 189.8 63.7ZM105.4 60.3C103.9 60.3 102.6 61.5 102.6 63.3C102.6 65.1 103.9 66.3 105.4 66.3C106.9 66.3 108.2 65.1 108.2 63.3C108.2 61.5 107.1 60.3 105.4 60.3ZM141.8 60.3C140.4 60.3 139.6 61.2 139.3 61.6V65C139.6 65.5 140.3 66.2 141.8 66.2C143.6 66.2 144.5 64.7 144.5 63.2C144.5 61.9 143.7 60.3 141.8 60.3ZM128.9 60.1C126.7 60.1 126.6 62.2 126.6 62.2H131C131 62.2 131.1 60.1 128.9 60.1ZM82.5002 60H80.7002V62.2H82.5002C83.5002 62.2 83.9002 61.8 83.9002 61.1C83.9002 60.5 83.5002 60 82.5002 60ZM154.5 60H152.7V62.2H154.5C155.5 62.2 155.9 61.8 155.9 61.1C155.9 60.5 155.6 60 154.5 60ZM144.6 38.6C148.3 38.6 150.4 41.4 150.4 44.2C150.4 47.1 148.3 49.8 144.6 49.8C140.9 49.8 138.8 47.1 138.8 44.2C138.9 41.3 141 38.6 144.6 38.6ZM81.1002 38.6C84.2002 38.6 86.0002 41 86.0002 44.2V45H78.7002C78.7002 45 78.9002 47.2 82.1002 47.2C83.9002 47.2 85.4002 46.3 85.4002 46.3V48.7C85.4002 48.7 84.2002 49.8 81.5002 49.8C78.6002 49.8 75.7002 47.9 75.7002 44.2C75.7002 40.7 78.2002 38.6 81.1002 38.6ZM118.4 38.6C122.1 38.6 124.2 41.4 124.2 44.2C124.2 47.1 122.1 49.8 118.4 49.8C114.7 49.8 112.6 47.1 112.6 44.2C112.6 41.3 114.7 38.6 118.4 38.6ZM136.8 38.7V49.3H133.8V41.2H130.8C130.8 46.4 129.8 49.4 126.6 49.4C125.9 49.4 125.5 49.2 125.5 49.2V46.8C125.5 46.8 125.8 46.9 126.1 46.9C127.6 46.9 127.9 45 127.9 38.7H136.8ZM165.8 38.7V45L170.3 38.7H173.1V49.3H170.1V43L165.6 49.3H162.8V38.7H165.8ZM178.6 38.7V45L183.1 38.7H185.9V49.3H182.9V43L178.4 49.3H175.6V38.7H178.6ZM160.8 38.7V41.2H155.6V49.3H152.6V38.7H160.8ZM103.5 38.7V42.6H107.6V38.7H110.6V49.3H107.6V45.1H103.5V49.3H100.5V38.7H103.5ZM90.9002 38.7L92.9002 41.7L94.9002 38.7H98.2002L94.6002 43.8L98.5002 49.4H95.1002L92.8002 46L90.4002 49.4H87.1002L91.0002 43.9L87.4002 38.8H90.9002V38.7ZM76.2002 34V37H72.0002V49.3H69.0002V37H64.7002V34H76.2002ZM144.6 41.2C143.1 41.2 141.8 42.4 141.8 44.2C141.8 46 143.1 47.2 144.6 47.2C146.1 47.2 147.4 46 147.4 44.2C147.4 42.4 146.3 41.2 144.6 41.2ZM118.4 41.2C116.9 41.2 115.6 42.4 115.6 44.2C115.6 46 116.9 47.2 118.4 47.2C119.9 47.2 121.2 46 121.2 44.2C121.2 42.4 120.1 41.2 118.4 41.2ZM81.0002 40.9C78.8002 40.9 78.7002 43 78.7002 43H83.1002C83.1002 43.1 83.1002 40.9 81.0002 40.9Z" fill="#464751"/>
</svg>
