<svg width="200" height="100" viewBox="0 0 200 100" fill="none" xmlns="http://www.w3.org/2000/svg">
<path d="M39.0999 44.8H36.1999C34.1999 39.9 29.2999 36.5 23.6999 36.5C18.0999 36.5 13.1999 39.9 11.1999 44.8H8.3999C10.5999 38.4 16.5999 33.8 23.7999 33.8C30.8999 33.8 36.8999 38.4 39.0999 44.8Z" fill="#262626"/>
<path d="M39.8999 51.6001C39.1999 58.6001 34.0999 64.3001 27.3999 65.8001V63.0001C32.5999 61.5001 36.4999 57.0001 37.1999 51.6001H39.8999Z" fill="#262626"/>
<path d="M20 63.0001V65.8001C13.3 64.3001 8.2 58.6001 7.5 51.6001H10.2C10.9 57.1001 14.8 61.6001 20 63.0001Z" fill="#262626"/>
<path d="M40 50C40 50.2 40 50.3 40 50.5H29C27.5 50.5 26.3 51.7 26.3 53.2V66C25.5 66.1 24.6 66.2 23.7 66.2C22.8 66.2 21.9 66.1 21.1 66V53.2C21.1 51.7 19.9 50.5 18.4 50.5H7.5C7.5 50.3 7.5 50.2 7.5 50C7.5 48.6 7.7 47.2 8 45.8H20.8C22.4 45.8 23.7 47.1 23.7 48.7C23.7 47.1 25 45.8 26.6 45.8H39.4C39.8 47.2 40 48.6 40 50Z" fill="#262626"/>
<path d="M50.3999 43.6001H63.4999V47.0001H59.0999V57.5001H54.7999V47.0001H50.3999V43.6001Z" fill="#262626"/>
<path d="M76.3997 53.4H68.5997C68.6997 54 68.7997 54.5 69.0997 54.8C69.4997 55.2 69.9997 55.5 70.5997 55.5C70.9997 55.5 71.2997 55.4 71.6997 55.2C71.8997 55.1 72.0997 54.9 72.3997 54.6L76.1997 55C75.5997 56 74.8997 56.7 74.0997 57.2C73.2997 57.7 72.0997 57.9 70.5997 57.9C69.2997 57.9 68.1997 57.7 67.3997 57.3C66.5997 56.9 65.9997 56.3 65.4997 55.5C64.9997 54.7 64.6997 53.7 64.6997 52.6C64.6997 51 65.1997 49.7 66.1997 48.8C67.1997 47.8 68.5997 47.3 70.3997 47.3C71.7997 47.3 72.9997 47.5 73.7997 48C74.5997 48.4 75.2997 49.1 75.6997 49.9C76.0997 50.7 76.3997 51.8 76.3997 53.1V53.4ZM72.3997 51.6C72.2997 50.9 72.0997 50.3 71.7997 50C71.4997 49.7 70.9997 49.5 70.4997 49.5C69.8997 49.5 69.3997 49.7 68.9997 50.2C68.7997 50.5 68.5997 51 68.5997 51.6H72.3997Z" fill="#262626"/>
<path d="M77.2997 47.4001H81.8997L83.4997 50.2001L85.3997 47.4001H89.6997L86.2997 52.2001L89.9997 57.5001H85.4997L83.5997 54.3001L81.3997 57.5001H77.1997L80.8997 52.2001L77.2997 47.4001Z" fill="#262626"/>
<path d="M102.5 57.5001H98.5997V53.7001H95.0997V57.5001H91.1997V47.4001H95.0997V50.9001H98.5997V47.4001H102.5V57.5001Z" fill="#262626"/>
<path d="M104.5 52.5002C104.5 51.0002 105 49.7002 106.1 48.7002C107.1 47.7002 108.5 47.2002 110.3 47.2002C112.3 47.2002 113.8 47.8002 114.9 49.0002C115.7 49.9002 116.1 51.1002 116.1 52.5002C116.1 54.1002 115.6 55.3002 114.6 56.3002C113.6 57.3002 112.1 57.8002 110.3 57.8002C108.7 57.8002 107.4 57.4002 106.4 56.6002C105.1 55.5002 104.5 54.1002 104.5 52.5002ZM108.4 52.5002C108.4 53.4002 108.6 54.1002 108.9 54.5002C109.3 54.9002 109.7 55.1002 110.3 55.1002C110.9 55.1002 111.3 54.9002 111.7 54.5002C112.1 54.1002 112.2 53.4002 112.2 52.5002C112.2 51.6002 112 51.0002 111.7 50.5002C111.3 50.1002 110.9 49.9002 110.4 49.9002C109.8 49.9002 109.4 50.1002 109 50.6002C108.6 50.9002 108.4 51.6002 108.4 52.5002Z" fill="#262626"/>
<path d="M118.2 43.6001H126.3C127.6 43.6001 128.7 43.9001 129.4 44.6001C130.1 45.3001 130.5 46.1001 130.5 47.1001C130.5 47.9001 130.2 48.6001 129.7 49.2001C129.4 49.6001 128.9 49.9001 128.2 50.1001C129.2 50.3001 129.9 50.8001 130.4 51.3001C130.9 51.9001 131.1 52.6001 131.1 53.5001C131.1 54.2001 130.9 54.9001 130.6 55.4001C130.3 56.0001 129.8 56.4001 129.2 56.8001C128.8 57.0001 128.3 57.2001 127.6 57.3001C126.6 57.4001 126 57.5001 125.7 57.5001H118.3V43.6001H118.2ZM122.5 49.0001H124.4C125.1 49.0001 125.5 48.9001 125.8 48.7001C126.1 48.5001 126.2 48.1001 126.2 47.7001C126.2 47.3001 126.1 47.0001 125.8 46.8001C125.5 46.6001 125.1 46.5001 124.4 46.5001H122.5V49.0001ZM122.5 54.5001H124.7C125.4 54.5001 126 54.4001 126.3 54.1001C126.6 53.8001 126.8 53.5001 126.8 53.0001C126.8 52.6001 126.6 52.3001 126.3 52.0001C126 51.7001 125.5 51.6001 124.7 51.6001H122.5V54.5001Z" fill="#CE8925"/>
<path d="M144.3 53.4H136.5C136.6 54 136.7 54.5 137 54.8C137.4 55.2 137.9 55.5 138.5 55.5C138.9 55.5 139.2 55.4 139.6 55.2C139.8 55.1 140 54.9 140.3 54.6L144.1 55C143.5 56 142.8 56.7 142 57.2C141.2 57.6 140 57.9 138.5 57.9C137.2 57.9 136.1 57.7 135.3 57.3C134.5 56.9 133.9 56.3 133.4 55.5C132.9 54.7 132.6 53.7 132.6 52.6C132.6 51 133.1 49.7 134.1 48.8C135.1 47.8 136.5 47.3 138.3 47.3C139.7 47.3 140.9 47.5 141.7 48C142.5 48.4 143.2 49.1 143.6 49.9C144 50.7 144.3 51.8 144.3 53.1V53.4ZM140.3 51.6C140.2 50.9 140 50.3 139.7 50C139.4 49.7 138.9 49.5 138.4 49.5C137.8 49.5 137.3 49.7 136.9 50.2C136.7 50.5 136.5 51 136.5 51.6H140.3Z" fill="#CE8925"/>
<path d="M157.3 57.5002H152.9L151.4 54.7002C151.2 54.3002 150.9 54.0002 150.7 53.9002C150.5 53.8002 150.2 53.7002 149.9 53.7002V57.5002H146V47.4002H149.9V51.0002C150.2 51.0002 150.5 50.9002 150.6 50.7002C150.8 50.5002 151 50.1002 151.3 49.5002C151.6 48.9002 151.8 48.5002 152.1 48.2002C152.3 47.9002 152.6 47.7002 153 47.6002C153.4 47.5002 153.8 47.4002 154.3 47.3002C154.8 47.3002 155.6 47.2002 156.7 47.2002V49.9002H156.5C156 49.9002 155.6 49.9002 155.3 50.0002C155 50.0002 154.8 50.1002 154.6 50.3002C154.4 50.4002 154.2 50.7002 154 51.1002C153.8 51.5002 153.6 51.8002 153.5 52.0002C153.4 52.2002 153.1 52.3002 152.9 52.3002C153.4 52.4002 153.9 52.5002 154.1 52.6002C154.4 52.8002 154.8 53.4002 155.4 54.3002L157.3 57.5002Z" fill="#CE8925"/>
<path d="M167 50.2001H164.2V57.5001H160.3V50.2001H157.5V47.4001H167V50.2001Z" fill="#CE8925"/>
<path d="M167.9 52.5002C167.9 51.0002 168.4 49.7002 169.5 48.7002C170.5 47.7002 171.9 47.2002 173.7 47.2002C175.7 47.2002 177.2 47.8002 178.3 49.0002C179.1 49.9002 179.5 51.1002 179.5 52.5002C179.5 54.1002 179 55.3002 178 56.3002C177 57.3002 175.5 57.8002 173.7 57.8002C172.1 57.8002 170.8 57.4002 169.8 56.6002C168.6 55.5002 167.9 54.1002 167.9 52.5002ZM171.8 52.5002C171.8 53.4002 172 54.1002 172.3 54.5002C172.7 54.9002 173.1 55.1002 173.7 55.1002C174.3 55.1002 174.7 54.9002 175.1 54.5002C175.5 54.1002 175.6 53.4002 175.6 52.5002C175.6 51.6002 175.4 51.0002 175.1 50.5002C174.7 50.1002 174.3 49.9002 173.8 49.9002C173.2 49.9002 172.8 50.1002 172.4 50.6002C172 50.9002 171.8 51.6002 171.8 52.5002Z" fill="#CE8925"/>
<path d="M181.4 61.3002V47.4002H185V48.9002C185.5 48.3002 186 47.8002 186.4 47.6002C187 47.3002 187.6 47.2002 188.3 47.2002C189.6 47.2002 190.7 47.7002 191.4 48.7002C192.1 49.7002 192.5 51.0002 192.5 52.5002C192.5 54.2002 192.1 55.5002 191.3 56.3002C190.5 57.2002 189.5 57.6002 188.3 57.6002C187.7 57.6002 187.2 57.5002 186.7 57.3002C186.2 57.1002 185.8 56.8002 185.4 56.4002V61.2002H181.4V61.3002ZM185.3 52.5002C185.3 53.3002 185.5 53.9002 185.8 54.3002C186.1 54.7002 186.6 54.9002 187.1 54.9002C187.5 54.9002 187.9 54.7002 188.2 54.3002C188.5 53.9002 188.7 53.3002 188.7 52.4002C188.7 51.6002 188.5 51.0002 188.2 50.6002C187.9 50.2002 187.5 50.0002 187 50.0002C186.5 50.0002 186.1 50.2002 185.8 50.6002C185.4 51.0002 185.3 51.6002 185.3 52.5002Z" fill="#CE8925"/>
</svg>
