<svg width="200" height="100" viewBox="0 0 200 100" fill="none" xmlns="http://www.w3.org/2000/svg">
<path d="M64.5 49.6001C64.5 48.2001 64.7 47.1001 65.1 46.1001C65.4 45.4001 65.8 44.8001 66.3 44.3001C66.8 43.8001 67.4 43.3001 68 43.1001C68.9 42.7001 69.8 42.6001 70.9 42.6001C72.9 42.6001 74.5 43.2001 75.7 44.4001C76.9 45.6001 77.5 47.3001 77.5 49.5001C77.5 51.7001 76.9 53.4001 75.7 54.6001C74.5 55.8001 72.9 56.4001 70.9 56.4001C68.9 56.4001 67.3 55.8001 66.1 54.6001C65.1 53.4001 64.5 51.8001 64.5 49.6001ZM67.3 49.5001C67.3 51.0001 67.7 52.2001 68.4 53.0001C69.1 53.8001 70 54.2001 71.1 54.2001C72.2 54.2001 73.1 53.8001 73.8 53.0001C74.5 52.2001 74.8 51.1001 74.8 49.5001C74.8 47.9001 74.5 46.8001 73.8 46.0001C73.1 45.2001 72.2 44.9001 71.1 44.9001C70 44.9001 69.1 45.3001 68.4 46.1001C67.6 46.8001 67.3 48.0001 67.3 49.5001ZM79.6 46.5001H88.3V56.3001H85.7V48.6001H82.2V56.3001H79.6V46.5001ZM89.9 46.5001H98.7V48.6001H95.6V56.3001H93V48.6001H89.9V46.5001ZM100.2 46.5001H102.7V52.6001L106.7 46.5001H109.3V56.3001H106.8V50.1001L102.8 56.3001H100.3V46.5001H100.2ZM111.9 46.5001H115.1L117.5 53.3001L120 46.5001H123.2V56.3001H121V49.9001L118.6 56.3001H116.4L114.1 49.9001V56.3001H112L111.9 46.5001ZM127.5 49.5001L125.2 49.1001C125.5 48.1001 125.9 47.4001 126.6 47.0001C127.2 46.5001 128.2 46.3001 129.5 46.3001C130.7 46.3001 131.5 46.4001 132.1 46.7001C132.7 47.0001 133.1 47.3001 133.3 47.7001C133.5 48.1001 133.7 48.9001 133.7 50.0001V53.0001C133.7 53.8001 133.7 54.5001 133.8 54.9001C133.9 55.3001 134 55.7001 134.3 56.2001H131.8C131.7 56.0001 131.7 55.8001 131.6 55.5001C131.6 55.4001 131.5 55.3001 131.5 55.2001C131.1 55.6001 130.6 55.9001 130.1 56.2001C129.6 56.4001 129.1 56.5001 128.5 56.5001C127.5 56.5001 126.7 56.2001 126.1 55.7001C125.5 55.2001 125.2 54.5001 125.2 53.6001C125.2 53.1001 125.3 52.6001 125.6 52.1001C125.9 51.7001 126.2 51.3001 126.7 51.1001C127.2 50.9001 127.9 50.7001 128.8 50.5001C130 50.3001 130.8 50.1001 131.3 49.9001V49.6001C131.3 49.1001 131.2 48.8001 130.9 48.5001C130.7 48.3001 130.2 48.2001 129.5 48.2001C129 48.2001 128.7 48.3001 128.4 48.5001C127.9 48.7001 127.6 49.1001 127.5 49.5001ZM131 51.6001C130.7 51.7001 130.1 51.8001 129.4 52.0001C128.7 52.1001 128.2 52.3001 128 52.5001C127.7 52.7001 127.5 53.0001 127.5 53.4001C127.5 53.8001 127.6 54.1001 127.9 54.3001C128.2 54.6001 128.5 54.7001 128.9 54.7001C129.4 54.7001 129.8 54.6001 130.2 54.2001C130.5 54.0001 130.7 53.7001 130.8 53.4001C130.9 53.2001 130.9 52.8001 130.9 52.1001L131 51.6001Z" fill="#363C43"/>
<path d="M139.1 56.3001V45.3001C139.1 45.2001 139 45.1001 138.9 45.1001H135.3C135.2 45.1001 135.1 45.0001 135.1 44.9001V43.0001C135.1 42.9001 135.2 42.8001 135.3 42.8001H145.6C145.7 42.8001 145.8 42.9001 145.8 43.0001V44.9001C145.8 45.0001 145.7 45.1001 145.6 45.1001H142C141.9 45.1001 141.8 45.2001 141.8 45.3001V56.1001C141.8 56.2001 141.7 56.3001 141.6 56.3001H139.1ZM146.8 46.5001H149C149.1 46.5001 149.2 46.6001 149.2 46.7001V47.2001C149.2 47.4001 149.5 47.5001 149.6 47.4001C149.8 47.2001 150.1 47.0001 150.4 46.8001C150.9 46.5001 151.5 46.3001 152.2 46.3001C153.3 46.3001 154.3 46.7001 155.1 47.6001C155.9 48.5001 156.3 49.7001 156.3 51.3001C156.3 52.9001 155.9 54.2001 155.1 55.1001C154.3 56.0001 153.3 56.4001 152.2 56.4001C151.7 56.4001 151.2 56.3001 150.7 56.1001C150.4 55.9001 150 55.7001 149.7 55.4001C149.6 55.3001 149.3 55.4001 149.3 55.6001V59.8001C149.3 59.9001 149.2 60.0001 149.1 60.0001H147C146.9 60.0001 146.8 59.9001 146.8 59.8001V46.5001ZM149.3 51.3001C149.3 52.4001 149.5 53.2001 149.9 53.7001C150.3 54.2001 150.9 54.5001 151.5 54.5001C152.1 54.5001 152.6 54.3001 153 53.8001C153.4 53.3001 153.6 52.5001 153.6 51.4001C153.6 50.4001 153.4 49.6001 153 49.1001C152.6 48.6001 152.1 48.4001 151.5 48.4001C150.9 48.4001 150.3 48.6001 149.9 49.1001C149.5 49.6001 149.3 50.3001 149.3 51.3001ZM164 53.4001C164 53.3001 164.1 53.2001 164.2 53.3001L166.4 53.7001C166.5 53.7001 166.6 53.9001 166.6 54.0001C166.3 54.8001 165.8 55.5001 165.1 55.9001C164.4 56.4001 163.5 56.6001 162.4 56.6001C160.7 56.6001 159.5 56.0001 158.6 54.9001C158 54.0001 157.6 52.9001 157.6 51.5001C157.6 49.9001 158 48.6001 158.9 47.7001C159.8 46.8001 160.8 46.3001 162.1 46.3001C163.6 46.3001 164.7 46.8001 165.5 47.7001C166.3 48.6001 166.7 50.0001 166.7 51.9001C166.7 52.0001 166.6 52.1001 166.5 52.1001H160.5C160.4 52.1001 160.3 52.2001 160.3 52.3001C160.4 53.0001 160.6 53.5001 160.9 53.9001C161.3 54.3001 161.8 54.5001 162.4 54.5001C162.8 54.5001 163.1 54.4001 163.4 54.2001C163.6 54.1001 163.8 53.8001 164 53.4001ZM164.2 50.6001C164.2 49.9001 164 49.3001 163.6 48.9001C163.2 48.5001 162.8 48.3001 162.2 48.3001C161.6 48.3001 161.2 48.5001 160.8 48.9001C160.5 49.3001 160.3 49.8001 160.3 50.4001C160.3 50.5001 160.4 50.6001 160.5 50.6001H164.2ZM168.8 46.7001C168.8 46.6001 168.9 46.5001 169 46.5001H171.1C171.2 46.5001 171.3 46.6001 171.3 46.7001V51.9001C171.3 52.1001 171.6 52.2001 171.7 52.0001L175.2 46.6001C175.2 46.5001 175.3 46.5001 175.4 46.5001H177.6C177.7 46.5001 177.8 46.6001 177.8 46.7001V56.0001C177.8 56.1001 177.7 56.2001 177.6 56.2001H175.5C175.4 56.2001 175.3 56.1001 175.3 56.0001V50.7001C175.3 50.5001 175 50.4001 174.9 50.6001L171.3 56.1001C171.3 56.2001 171.2 56.2001 171.1 56.2001H169C168.9 56.2001 168.8 56.1001 168.8 56.0001V46.7001ZM174.9 42.8001C174.9 42.7001 175 42.6001 175.1 42.6001H176C176.1 42.6001 176.2 42.7001 176.2 42.8001C176.1 43.5001 175.8 44.1001 175.4 44.5001C174.9 45.0001 174.2 45.2001 173.4 45.2001C172.6 45.2001 171.9 45.0001 171.4 44.5001C170.9 44.1001 170.6 43.5001 170.5 42.8001C170.5 42.7001 170.6 42.6001 170.7 42.6001H171.6C171.7 42.6001 171.8 42.7001 171.8 42.8001C171.9 43.1001 172 43.4001 172.2 43.6001C172.5 43.8001 172.8 43.9001 173.3 43.9001C173.8 43.9001 174.2 43.8001 174.4 43.6001C174.7 43.4001 174.8 43.1001 174.9 42.8001ZM188.5 56.3001H181.3C181.2 56.3001 181.1 56.4001 181.1 56.5001V58.7001C181.1 58.8001 181 58.9001 180.9 58.9001H179.2C179.1 58.9001 179 58.8001 179 58.7001V54.5001C179 54.4001 179.1 54.3001 179.2 54.3001H180C180.1 54.3001 180.1 54.3001 180.2 54.2001C180.6 53.7001 181 53.0001 181.2 52.0001C181.5 51.0001 181.6 49.3001 181.7 46.9001C181.7 46.8001 181.8 46.7001 181.9 46.7001H189.4C189.5 46.7001 189.6 46.8001 189.6 46.9001V54.1001C189.6 54.2001 189.7 54.3001 189.8 54.3001H190.4C190.5 54.3001 190.6 54.4001 190.6 54.5001V58.8001C190.6 58.9001 190.5 59.0001 190.4 59.0001H188.7C188.6 59.0001 188.5 58.9001 188.5 58.8001V56.3001ZM186.8 54.2001C186.9 54.2001 187 54.1001 187 54.0001V48.9001C187 48.8001 186.9 48.7001 186.8 48.7001H184.1C184 48.7001 183.9 48.8001 183.9 48.9001C183.8 51.2001 183.4 52.9001 182.8 53.9001C182.7 54.0001 182.8 54.2001 183 54.2001H186.8Z" fill="#F7B126"/>
<path d="M139.1 56.3001V45.3001C139.1 45.2001 139 45.1001 138.9 45.1001H135.3C135.2 45.1001 135.1 45.0001 135.1 44.9001V43.0001C135.1 42.9001 135.2 42.8001 135.3 42.8001H145.6C145.7 42.8001 145.8 42.9001 145.8 43.0001V44.9001C145.8 45.0001 145.7 45.1001 145.6 45.1001H142C141.9 45.1001 141.8 45.2001 141.8 45.3001V56.1001C141.8 56.2001 141.7 56.3001 141.6 56.3001H139.1ZM146.8 46.5001H149C149.1 46.5001 149.2 46.6001 149.2 46.7001V47.2001C149.2 47.4001 149.5 47.5001 149.6 47.4001C149.8 47.2001 150.1 47.0001 150.4 46.8001C150.9 46.5001 151.5 46.3001 152.2 46.3001C153.3 46.3001 154.3 46.7001 155.1 47.6001C155.9 48.5001 156.3 49.7001 156.3 51.3001C156.3 52.9001 155.9 54.2001 155.1 55.1001C154.3 56.0001 153.3 56.4001 152.2 56.4001C151.7 56.4001 151.2 56.3001 150.7 56.1001C150.4 55.9001 150 55.7001 149.7 55.4001C149.6 55.3001 149.3 55.4001 149.3 55.6001V59.8001C149.3 59.9001 149.2 60.0001 149.1 60.0001H147C146.9 60.0001 146.8 59.9001 146.8 59.8001V46.5001ZM149.3 51.3001C149.3 52.4001 149.5 53.2001 149.9 53.7001C150.3 54.2001 150.9 54.5001 151.5 54.5001C152.1 54.5001 152.6 54.3001 153 53.8001C153.4 53.3001 153.6 52.5001 153.6 51.4001C153.6 50.4001 153.4 49.6001 153 49.1001C152.6 48.6001 152.1 48.4001 151.5 48.4001C150.9 48.4001 150.3 48.6001 149.9 49.1001C149.5 49.6001 149.3 50.3001 149.3 51.3001ZM164 53.4001C164 53.3001 164.1 53.2001 164.2 53.3001L166.4 53.7001C166.5 53.7001 166.6 53.9001 166.6 54.0001C166.3 54.8001 165.8 55.5001 165.1 55.9001C164.4 56.4001 163.5 56.6001 162.4 56.6001C160.7 56.6001 159.5 56.0001 158.6 54.9001C158 54.0001 157.6 52.9001 157.6 51.5001C157.6 49.9001 158 48.6001 158.9 47.7001C159.8 46.8001 160.8 46.3001 162.1 46.3001C163.6 46.3001 164.7 46.8001 165.5 47.7001C166.3 48.6001 166.7 50.0001 166.7 51.9001C166.7 52.0001 166.6 52.1001 166.5 52.1001H160.5C160.4 52.1001 160.3 52.2001 160.3 52.3001C160.4 53.0001 160.6 53.5001 160.9 53.9001C161.3 54.3001 161.8 54.5001 162.4 54.5001C162.8 54.5001 163.1 54.4001 163.4 54.2001C163.6 54.1001 163.8 53.8001 164 53.4001ZM164.2 50.6001C164.2 49.9001 164 49.3001 163.6 48.9001C163.2 48.5001 162.8 48.3001 162.2 48.3001C161.6 48.3001 161.2 48.5001 160.8 48.9001C160.5 49.3001 160.3 49.8001 160.3 50.4001C160.3 50.5001 160.4 50.6001 160.5 50.6001H164.2ZM168.8 46.7001C168.8 46.6001 168.9 46.5001 169 46.5001H171.1C171.2 46.5001 171.3 46.6001 171.3 46.7001V51.9001C171.3 52.1001 171.6 52.2001 171.7 52.0001L175.2 46.6001C175.2 46.5001 175.3 46.5001 175.4 46.5001H177.6C177.7 46.5001 177.8 46.6001 177.8 46.7001V56.0001C177.8 56.1001 177.7 56.2001 177.6 56.2001H175.5C175.4 56.2001 175.3 56.1001 175.3 56.0001V50.7001C175.3 50.5001 175 50.4001 174.9 50.6001L171.3 56.1001C171.3 56.2001 171.2 56.2001 171.1 56.2001H169C168.9 56.2001 168.8 56.1001 168.8 56.0001V46.7001ZM174.9 42.8001C174.9 42.7001 175 42.6001 175.1 42.6001H176C176.1 42.6001 176.2 42.7001 176.2 42.8001C176.1 43.5001 175.8 44.1001 175.4 44.5001C174.9 45.0001 174.2 45.2001 173.4 45.2001C172.6 45.2001 171.9 45.0001 171.4 44.5001C170.9 44.1001 170.6 43.5001 170.5 42.8001C170.5 42.7001 170.6 42.6001 170.7 42.6001H171.6C171.7 42.6001 171.8 42.7001 171.8 42.8001C171.9 43.1001 172 43.4001 172.2 43.6001C172.5 43.8001 172.8 43.9001 173.3 43.9001C173.8 43.9001 174.2 43.8001 174.4 43.6001C174.7 43.4001 174.8 43.1001 174.9 42.8001ZM188.5 56.3001H181.3C181.2 56.3001 181.1 56.4001 181.1 56.5001V58.7001C181.1 58.8001 181 58.9001 180.9 58.9001H179.2C179.1 58.9001 179 58.8001 179 58.7001V54.5001C179 54.4001 179.1 54.3001 179.2 54.3001H180C180.1 54.3001 180.1 54.3001 180.2 54.2001C180.6 53.7001 181 53.0001 181.2 52.0001C181.5 51.0001 181.6 49.3001 181.7 46.9001C181.7 46.8001 181.8 46.7001 181.9 46.7001H189.4C189.5 46.7001 189.6 46.8001 189.6 46.9001V54.1001C189.6 54.2001 189.7 54.3001 189.8 54.3001H190.4C190.5 54.3001 190.6 54.4001 190.6 54.5001V58.8001C190.6 58.9001 190.5 59.0001 190.4 59.0001H188.7C188.6 59.0001 188.5 58.9001 188.5 58.8001V56.3001ZM186.8 54.2001C186.9 54.2001 187 54.1001 187 54.0001V48.9001C187 48.8001 186.9 48.7001 186.8 48.7001H184.1C184 48.7001 183.9 48.8001 183.9 48.9001C183.8 51.2001 183.4 52.9001 182.8 53.9001C182.7 54.0001 182.8 54.2001 183 54.2001H186.8Z" fill="#FD9D08"/>
<path fill-rule="evenodd" clip-rule="evenodd" d="M9.3999 61.9C9.3999 62 9.4999 62.1 9.5999 62.1H23.8999C23.9999 62.1 24.0999 62 24.0999 61.9C25.7999 49.3 33.4999 43.6 41.6999 38.2C41.8999 38.1 41.7999 37.8 41.5999 37.8C37.0999 37.8 34.4999 37.8 29.8999 37.8C18.7999 39.4 11.5999 49.8 9.3999 61.9Z" fill="#F7B126"/>
<path fill-rule="evenodd" clip-rule="evenodd" d="M9.3999 61.9C9.3999 62 9.4999 62.1 9.5999 62.1H23.8999C23.9999 62.1 24.0999 62 24.0999 61.9C25.7999 49.3 33.4999 43.6 41.6999 38.2C41.8999 38.1 41.7999 37.8 41.5999 37.8C37.0999 37.8 34.4999 37.8 29.8999 37.8C18.7999 39.4 11.5999 49.8 9.3999 61.9Z" fill="#FD9D08"/>
<path fill-rule="evenodd" clip-rule="evenodd" d="M60.5001 37.9001H45.8001C44.1001 50.9001 36.1001 56.6001 27.6001 62.2001C32.5001 62.2001 35.1001 62.2001 40.0001 62.2001C51.1001 60.6001 58.4001 50.0001 60.5001 37.9001Z" fill="#363C43"/>
</svg>
