<svg width="178" height="42" viewBox="0 0 178 42" fill="none" xmlns="http://www.w3.org/2000/svg">
<path d="M38.4171 19.2085C38.4171 29.8171 29.8171 38.4171 19.2085 38.4171C8.59995 38.4171 0 29.8171 0 19.2085C0 8.59995 8.59995 0 19.2085 0C29.8171 0 38.4171 8.59995 38.4171 19.2085Z" fill="url(#paint0_linear_436_9125)"/>
<path d="M35.9286 40.9549L16.0234 38.2677L38.0685 16.2227L40.9547 34.834L35.9286 40.9549Z" fill="url(#paint1_linear_436_9125)" fill-opacity="0.32"/>
<circle cx="37.3222" cy="36.8247" r="4.67772" fill="url(#paint2_linear_436_9125)"/>
<mask id="mask0_436_9125" style="mask-type:alpha" maskUnits="userSpaceOnUse" x="32" y="32" width="10" height="10">
<circle cx="37.3222" cy="36.8247" r="4.67772" fill="url(#paint3_linear_436_9125)"/>
</mask>
<g mask="url(#mask0_436_9125)">
<g filter="url(#filter0_f_436_9125)">
<path d="M45.4835 41.2138C45.4835 45.1402 42.2975 48.3231 38.3674 48.3231C34.4372 48.3231 31.2513 45.1402 31.2513 41.2138C31.2513 39.4243 31.9131 37.3826 33.0055 35.6903C34.31 33.6695 36.2285 32.147 38.3674 32.147C40.4702 32.147 39.9295 35.7034 41.2322 37.6733C42.3642 39.385 45.4835 39.3883 45.4835 41.2138Z" fill="#0B80BD"/>
</g>
</g>
<mask id="mask1_436_9125" style="mask-type:alpha" maskUnits="userSpaceOnUse" x="0" y="0" width="39" height="39">
<circle cx="19.2085" cy="19.2085" r="19.2085" fill="url(#paint4_linear_436_9125)"/>
</mask>
<g mask="url(#mask1_436_9125)">
<g filter="url(#filter1_f_436_9125)">
<circle cx="25.0988" cy="16.1416" r="6.83928" transform="rotate(135 25.0988 16.1416)" fill="#FF3333"/>
</g>
<g filter="url(#filter2_f_436_9125)">
<circle cx="10.3971" cy="22.397" r="17.2513" transform="rotate(135 10.3971 22.397)" fill="url(#paint5_linear_436_9125)"/>
</g>
<g filter="url(#filter3_f_436_9125)">
<path d="M14.0284 12.3987C7.42505 14.6067 7.17569 22.1897 0.435505 23.9352C-11.3919 26.9981 2.1973 -0.99901 13.9732 -4.25462C18.908 -5.61889 22.3673 -5.6126 27.0624 -3.58024C35.5838 0.108344 43.3651 10.0352 37.9168 17.5602C32.3181 25.2929 23.0846 9.37036 14.0284 12.3987Z" fill="#4ACFFF"/>
</g>
</g>
<path d="M69.7734 33.1143H65.9531L63.9375 30.0908C63.8281 30.1064 63.7227 30.1143 63.6211 30.1143C63.5273 30.1143 63.4336 30.1143 63.3398 30.1143C62.543 30.1143 61.7734 30.0088 61.0312 29.7979C60.2969 29.5947 59.6055 29.3057 58.957 28.9307C58.3164 28.5479 57.7305 28.0908 57.1992 27.5596C56.668 27.0283 56.2109 26.4424 55.8281 25.8018C55.4531 25.1533 55.1602 24.4619 54.9492 23.7275C54.7461 22.9854 54.6445 22.2158 54.6445 21.4189C54.6445 20.6221 54.7461 19.8525 54.9492 19.1104C55.1602 18.3682 55.4531 17.6768 55.8281 17.0361C56.2109 16.3955 56.668 15.8096 57.1992 15.2783C57.7305 14.7471 58.3164 14.2939 58.957 13.9189C59.6055 13.5439 60.2969 13.2549 61.0312 13.0518C61.7734 12.8408 62.543 12.7354 63.3398 12.7354C64.1367 12.7354 64.9062 12.8408 65.6484 13.0518C66.3906 13.2549 67.082 13.5439 67.7227 13.9189C68.3633 14.2939 68.9492 14.7471 69.4805 15.2783C70.0117 15.8096 70.4648 16.3955 70.8398 17.0361C71.2148 17.6768 71.5039 18.3682 71.707 19.1104C71.918 19.8525 72.0234 20.6221 72.0234 21.4189C72.0234 22.2471 71.9062 23.0518 71.6719 23.833C71.4453 24.6143 71.1211 25.3447 70.6992 26.0244C70.2773 26.6963 69.7656 27.3057 69.1641 27.8525C68.5703 28.3994 67.9062 28.8564 67.1719 29.2236L69.7734 33.1143ZM68.6836 21.4189C68.6836 20.6846 68.543 19.9932 68.2617 19.3447C67.9805 18.6885 67.5977 18.1221 67.1133 17.6455C66.6367 17.1611 66.0703 16.7783 65.4141 16.4971C64.7656 16.2158 64.0742 16.0752 63.3398 16.0752C62.5977 16.0752 61.9023 16.2158 61.2539 16.4971C60.6055 16.7783 60.0391 17.1611 59.5547 17.6455C59.0703 18.1221 58.6875 18.6885 58.4062 19.3447C58.125 19.9932 57.9844 20.6846 57.9844 21.4189C57.9844 22.1533 58.125 22.8447 58.4062 23.4932C58.6875 24.1338 59.0703 24.6963 59.5547 25.1807C60.0391 25.665 60.6055 26.0479 61.2539 26.3291C61.9023 26.6104 62.5977 26.751 63.3398 26.751C64.0742 26.751 64.7656 26.6104 65.4141 26.3291C66.0703 26.0479 66.6367 25.665 67.1133 25.1807C67.5977 24.6963 67.9805 24.1338 68.2617 23.4932C68.543 22.8447 68.6836 22.1533 68.6836 21.4189ZM83.1211 28.2861C82.8633 28.5205 82.5859 28.7432 82.2891 28.9541C82 29.1572 81.6953 29.3369 81.375 29.4932C81.0547 29.6416 80.7227 29.7588 80.3789 29.8447C80.043 29.9385 79.6992 29.9854 79.3477 29.9854C78.5742 29.9854 77.8477 29.8486 77.168 29.5752C76.4883 29.3018 75.8906 28.915 75.375 28.415C74.8672 27.9072 74.4648 27.2939 74.168 26.5752C73.8789 25.8486 73.7344 25.0361 73.7344 24.1377V17.2002H76.9219V24.1377C76.9219 24.5596 76.9844 24.9385 77.1094 25.2744C77.2422 25.6025 77.418 25.8799 77.6367 26.1064C77.8555 26.333 78.1094 26.5049 78.3984 26.6221C78.6953 26.7393 79.0117 26.7979 79.3477 26.7979C79.6758 26.7979 79.9844 26.7236 80.2734 26.5752C80.5703 26.4189 80.8281 26.2158 81.0469 25.9658C81.2656 25.7158 81.4375 25.4346 81.5625 25.1221C81.6875 24.8018 81.75 24.4736 81.75 24.1377V17.2002H84.9492V29.751H84.1758L83.1211 28.2861ZM99.5273 23.3643C99.5273 24.3018 99.3594 25.1768 99.0234 25.9893C98.6875 26.7939 98.2305 27.4932 97.6523 28.0869C97.0742 28.6729 96.3945 29.1377 95.6133 29.4814C94.8398 29.8174 94.0078 29.9854 93.1172 29.9854C92.2344 29.9854 91.4023 29.8174 90.6211 29.4814C89.8477 29.1377 89.168 28.6729 88.582 28.0869C88.0039 27.4932 87.5469 26.7939 87.2109 25.9893C86.875 25.1768 86.707 24.3018 86.707 23.3643C86.707 22.4111 86.875 21.5283 87.2109 20.7158C87.5469 19.9033 88.0039 19.2041 88.582 18.6182C89.168 18.0244 89.8477 17.5596 90.6211 17.2236C91.4023 16.8877 92.2344 16.7197 93.1172 16.7197C94.0078 16.7197 94.8398 16.8799 95.6133 17.2002C96.3945 17.5127 97.0742 17.9619 97.6523 18.5479C98.2305 19.126 98.6875 19.8252 99.0234 20.6455C99.3594 21.458 99.5273 22.3643 99.5273 23.3643ZM96.3047 23.3643C96.3047 22.8486 96.2188 22.3838 96.0469 21.9697C95.8828 21.5479 95.6562 21.1885 95.3672 20.8916C95.0781 20.5869 94.7383 20.3564 94.3477 20.2002C93.9648 20.0361 93.5547 19.9541 93.1172 19.9541C92.6797 19.9541 92.2656 20.0361 91.875 20.2002C91.4922 20.3564 91.1562 20.5869 90.8672 20.8916C90.5859 21.1885 90.3633 21.5479 90.1992 21.9697C90.0352 22.3838 89.9531 22.8486 89.9531 23.3643C89.9531 23.8486 90.0352 24.2979 90.1992 24.7119C90.3633 25.126 90.5859 25.4854 90.8672 25.79C91.1562 26.0947 91.4922 26.3369 91.875 26.5166C92.2656 26.6885 92.6797 26.7744 93.1172 26.7744C93.5547 26.7744 93.9648 26.6924 94.3477 26.5283C94.7383 26.3643 95.0781 26.1338 95.3672 25.8369C95.6562 25.54 95.8828 25.1807 96.0469 24.7588C96.2188 24.3369 96.3047 23.8721 96.3047 23.3643ZM107.496 29.751C106.723 29.751 105.996 29.6064 105.316 29.3174C104.637 29.0205 104.039 28.6182 103.523 28.1104C103.016 27.5947 102.613 26.9971 102.316 26.3174C102.027 25.6377 101.883 24.9111 101.883 24.1377V20.4111H100.324V17.2236H101.883V12.208H105.07V17.2236H109.922V20.4111H105.07V24.1377C105.07 24.4736 105.133 24.79 105.258 25.0869C105.383 25.376 105.555 25.6299 105.773 25.8486C105.992 26.0674 106.25 26.2432 106.547 26.376C106.844 26.501 107.16 26.5635 107.496 26.5635H109.922V29.751H107.496ZM123.879 29.751H123.105L121.863 28.0283C121.559 28.3018 121.234 28.5596 120.891 28.8018C120.555 29.0361 120.199 29.2432 119.824 29.4229C119.449 29.5947 119.062 29.7314 118.664 29.833C118.273 29.9346 117.875 29.9854 117.469 29.9854C116.586 29.9854 115.754 29.8369 114.973 29.54C114.199 29.2432 113.52 28.8135 112.934 28.251C112.355 27.6807 111.898 26.9854 111.562 26.165C111.227 25.3447 111.059 24.4111 111.059 23.3643C111.059 22.3877 111.227 21.4932 111.562 20.6807C111.898 19.8604 112.355 19.1572 112.934 18.5713C113.52 17.9854 114.199 17.5322 114.973 17.2119C115.754 16.8838 116.586 16.7197 117.469 16.7197C117.875 16.7197 118.277 16.7705 118.676 16.8721C119.074 16.9736 119.461 17.1143 119.836 17.2939C120.211 17.4736 120.566 17.6846 120.902 17.9268C121.246 18.1689 121.566 18.4307 121.863 18.7119L123.105 17.2236H123.879V29.751ZM120.656 23.3643C120.656 22.9268 120.57 22.5049 120.398 22.0986C120.234 21.6846 120.008 21.3213 119.719 21.0088C119.43 20.6885 119.09 20.4346 118.699 20.2471C118.316 20.0518 117.906 19.9541 117.469 19.9541C117.031 19.9541 116.617 20.0283 116.227 20.1768C115.844 20.3252 115.508 20.5439 115.219 20.833C114.938 21.1221 114.715 21.4814 114.551 21.9111C114.387 22.333 114.305 22.8174 114.305 23.3643C114.305 23.9111 114.387 24.3994 114.551 24.8291C114.715 25.251 114.938 25.6064 115.219 25.8955C115.508 26.1846 115.844 26.4033 116.227 26.5518C116.617 26.7002 117.031 26.7744 117.469 26.7744C117.906 26.7744 118.316 26.6807 118.699 26.4932C119.09 26.2979 119.43 26.0439 119.719 25.7314C120.008 25.4111 120.234 25.0479 120.398 24.6416C120.57 24.2275 120.656 23.8018 120.656 23.3643ZM129.551 29.751H126.328V12.208H129.551V29.751ZM144.129 23.3643C144.129 24.3018 143.961 25.1768 143.625 25.9893C143.289 26.7939 142.832 27.4932 142.254 28.0869C141.676 28.6729 140.996 29.1377 140.215 29.4814C139.441 29.8174 138.609 29.9854 137.719 29.9854C136.836 29.9854 136.004 29.8174 135.223 29.4814C134.449 29.1377 133.77 28.6729 133.184 28.0869C132.605 27.4932 132.148 26.7939 131.812 25.9893C131.477 25.1768 131.309 24.3018 131.309 23.3643C131.309 22.4111 131.477 21.5283 131.812 20.7158C132.148 19.9033 132.605 19.2041 133.184 18.6182C133.77 18.0244 134.449 17.5596 135.223 17.2236C136.004 16.8877 136.836 16.7197 137.719 16.7197C138.609 16.7197 139.441 16.8799 140.215 17.2002C140.996 17.5127 141.676 17.9619 142.254 18.5479C142.832 19.126 143.289 19.8252 143.625 20.6455C143.961 21.458 144.129 22.3643 144.129 23.3643ZM140.906 23.3643C140.906 22.8486 140.82 22.3838 140.648 21.9697C140.484 21.5479 140.258 21.1885 139.969 20.8916C139.68 20.5869 139.34 20.3564 138.949 20.2002C138.566 20.0361 138.156 19.9541 137.719 19.9541C137.281 19.9541 136.867 20.0361 136.477 20.2002C136.094 20.3564 135.758 20.5869 135.469 20.8916C135.188 21.1885 134.965 21.5479 134.801 21.9697C134.637 22.3838 134.555 22.8486 134.555 23.3643C134.555 23.8486 134.637 24.2979 134.801 24.7119C134.965 25.126 135.188 25.4854 135.469 25.79C135.758 26.0947 136.094 26.3369 136.477 26.5166C136.867 26.6885 137.281 26.7744 137.719 26.7744C138.156 26.7744 138.566 26.6924 138.949 26.5283C139.34 26.3643 139.68 26.1338 139.969 25.8369C140.258 25.54 140.484 25.1807 140.648 24.7588C140.82 24.3369 140.906 23.8721 140.906 23.3643ZM154.828 23.3643C154.828 22.9268 154.742 22.5049 154.57 22.0986C154.406 21.6846 154.18 21.3213 153.891 21.0088C153.602 20.6885 153.262 20.4346 152.871 20.2471C152.488 20.0518 152.078 19.9541 151.641 19.9541C151.203 19.9541 150.789 20.0283 150.398 20.1768C150.016 20.3252 149.68 20.5439 149.391 20.833C149.109 21.1221 148.887 21.4814 148.723 21.9111C148.559 22.333 148.477 22.8174 148.477 23.3643C148.477 23.8877 148.559 24.3604 148.723 24.7822C148.887 25.1963 149.109 25.5518 149.391 25.8486C149.68 26.1455 150.016 26.376 150.398 26.54C150.789 26.6963 151.203 26.7744 151.641 26.7744C152.078 26.7744 152.488 26.6807 152.871 26.4932C153.262 26.2979 153.602 26.0439 153.891 25.7314C154.18 25.4111 154.406 25.0479 154.57 24.6416C154.742 24.2275 154.828 23.8018 154.828 23.3643ZM158.051 28.1689C158.051 29.0518 157.883 29.8799 157.547 30.6533C157.211 31.4268 156.75 32.1025 156.164 32.6807C155.586 33.2588 154.906 33.7158 154.125 34.0518C153.352 34.3877 152.523 34.5557 151.641 34.5557L150.035 34.5322V31.333L151.617 31.3564C152.117 31.3564 152.543 31.29 152.895 31.1572C153.246 31.0322 153.543 30.8564 153.785 30.6299C154.027 30.4111 154.219 30.1572 154.359 29.8682C154.508 29.5791 154.625 29.2744 154.711 28.9541C154.586 29.1572 154.406 29.3252 154.172 29.458C153.938 29.583 153.676 29.6846 153.387 29.7627C153.105 29.8486 152.809 29.9072 152.496 29.9385C152.191 29.9697 151.906 29.9854 151.641 29.9854C150.758 29.9854 149.926 29.833 149.145 29.5283C148.371 29.2236 147.691 28.79 147.105 28.2275C146.527 27.6572 146.07 26.9619 145.734 26.1416C145.398 25.3213 145.23 24.3955 145.23 23.3643C145.23 22.4189 145.398 21.54 145.734 20.7275C146.07 19.915 146.527 19.2119 147.105 18.6182C147.691 18.0244 148.371 17.5596 149.145 17.2236C149.926 16.8877 150.758 16.7197 151.641 16.7197C152.047 16.7197 152.449 16.7705 152.848 16.8721C153.246 16.9736 153.633 17.1143 154.008 17.2939C154.383 17.4736 154.738 17.6846 155.074 17.9268C155.418 18.1689 155.738 18.4307 156.035 18.7119L157.277 17.2236H158.051V28.1689ZM164.273 13.79C164.273 14.0869 164.215 14.3643 164.098 14.6221C163.988 14.8799 163.836 15.1064 163.641 15.3018C163.445 15.4893 163.215 15.6416 162.949 15.7588C162.691 15.8682 162.414 15.9229 162.117 15.9229C161.82 15.9229 161.539 15.8682 161.273 15.7588C161.016 15.6416 160.789 15.4893 160.594 15.3018C160.406 15.1064 160.254 14.8799 160.137 14.6221C160.027 14.3643 159.973 14.0869 159.973 13.79C159.973 13.501 160.027 13.2275 160.137 12.9697C160.254 12.7041 160.406 12.4775 160.594 12.29C160.789 12.0947 161.016 11.9424 161.273 11.833C161.539 11.7158 161.82 11.6572 162.117 11.6572C162.414 11.6572 162.691 11.7158 162.949 11.833C163.215 11.9424 163.445 12.0947 163.641 12.29C163.836 12.4775 163.988 12.7041 164.098 12.9697C164.215 13.2275 164.273 13.501 164.273 13.79ZM163.723 29.751H160.5V17.2002H163.723V29.751ZM177.141 19.6963L174.797 22.0518C174.68 21.7236 174.52 21.4307 174.316 21.1729C174.113 20.9072 173.883 20.6846 173.625 20.5049C173.375 20.3252 173.102 20.1885 172.805 20.0947C172.508 20.001 172.203 19.9541 171.891 19.9541C171.453 19.9541 171.039 20.0439 170.648 20.2236C170.266 20.4033 169.93 20.6572 169.641 20.9854C169.359 21.3057 169.137 21.6885 168.973 22.1338C168.809 22.5791 168.727 23.0713 168.727 23.6104C168.727 24.0479 168.809 24.458 168.973 24.8408C169.137 25.2236 169.359 25.5596 169.641 25.8486C169.93 26.1377 170.266 26.3643 170.648 26.5283C171.039 26.6924 171.453 26.7744 171.891 26.7744C172.203 26.7744 172.504 26.7314 172.793 26.6455C173.082 26.5596 173.352 26.4385 173.602 26.2822C173.859 26.1182 174.086 25.9229 174.281 25.6963C174.484 25.4619 174.648 25.2041 174.773 24.9229L177.117 27.2783C176.82 27.7002 176.477 28.0791 176.086 28.415C175.703 28.751 175.285 29.0361 174.832 29.2705C174.387 29.5049 173.914 29.6807 173.414 29.7979C172.922 29.9229 172.414 29.9854 171.891 29.9854C171.008 29.9854 170.176 29.8213 169.395 29.4932C168.621 29.1572 167.941 28.7002 167.355 28.1221C166.777 27.5439 166.32 26.8682 165.984 26.0947C165.648 25.3213 165.48 24.4932 165.48 23.6104C165.48 22.6494 165.648 21.751 165.984 20.915C166.32 20.0791 166.777 19.3525 167.355 18.7354C167.941 18.1104 168.621 17.6182 169.395 17.2588C170.176 16.8994 171.008 16.7197 171.891 16.7197C172.414 16.7197 172.926 16.7861 173.426 16.9189C173.934 17.0518 174.414 17.2471 174.867 17.5049C175.328 17.7549 175.75 18.0635 176.133 18.4307C176.523 18.7979 176.859 19.2197 177.141 19.6963Z" fill="white"/>
<defs>
<filter id="filter0_f_436_9125" x="22.2259" y="23.1217" width="32.2829" height="34.2269" filterUnits="userSpaceOnUse" color-interpolation-filters="sRGB">
<feFlood flood-opacity="0" result="BackgroundImageFix"/>
<feBlend mode="normal" in="SourceGraphic" in2="BackgroundImageFix" result="shape"/>
<feGaussianBlur stdDeviation="4.51266" result="effect1_foregroundBlur_436_9125"/>
</filter>
<filter id="filter1_f_436_9125" x="5.62119" y="-3.33609" width="38.9552" height="38.9554" filterUnits="userSpaceOnUse" color-interpolation-filters="sRGB">
<feFlood flood-opacity="0" result="BackgroundImageFix"/>
<feBlend mode="normal" in="SourceGraphic" in2="BackgroundImageFix" result="shape"/>
<feGaussianBlur stdDeviation="6.31917" result="effect1_foregroundBlur_436_9125"/>
</filter>
<filter id="filter2_f_436_9125" x="-19.4925" y="-7.49282" width="59.7793" height="59.7796" filterUnits="userSpaceOnUse" color-interpolation-filters="sRGB">
<feFlood flood-opacity="0" result="BackgroundImageFix"/>
<feBlend mode="normal" in="SourceGraphic" in2="BackgroundImageFix" result="shape"/>
<feGaussianBlur stdDeviation="6.31917" result="effect1_foregroundBlur_436_9125"/>
</filter>
<filter id="filter3_f_436_9125" x="-19.4102" y="-20.4919" width="74.4265" height="59.9486" filterUnits="userSpaceOnUse" color-interpolation-filters="sRGB">
<feFlood flood-opacity="0" result="BackgroundImageFix"/>
<feBlend mode="normal" in="SourceGraphic" in2="BackgroundImageFix" result="shape"/>
<feGaussianBlur stdDeviation="7.6439" result="effect1_foregroundBlur_436_9125"/>
</filter>
<linearGradient id="paint0_linear_436_9125" x1="50" y1="37" x2="-46.5" y2="-11" gradientUnits="userSpaceOnUse">
<stop stop-color="#0B80BD" stop-opacity="0.2"/>
<stop offset="1" stop-color="white" stop-opacity="0"/>
</linearGradient>
<linearGradient id="paint1_linear_436_9125" x1="54.54" y1="52.8482" x2="27.3196" y2="27.1208" gradientUnits="userSpaceOnUse">
<stop stop-color="#0B80BD"/>
<stop offset="1" stop-color="#0034D1" stop-opacity="0"/>
</linearGradient>
<linearGradient id="paint2_linear_436_9125" x1="51.6042" y1="48.519" x2="27.8672" y2="28.3152" gradientUnits="userSpaceOnUse">
<stop stop-color="#FF41F2"/>
<stop offset="1" stop-color="white"/>
</linearGradient>
<linearGradient id="paint3_linear_436_9125" x1="51.6042" y1="48.519" x2="27.8672" y2="28.3152" gradientUnits="userSpaceOnUse">
<stop stop-color="#FF41F2"/>
<stop offset="1" stop-color="white"/>
</linearGradient>
<linearGradient id="paint4_linear_436_9125" x1="39.263" y1="38.4171" x2="1.24408" y2="3.58294" gradientUnits="userSpaceOnUse">
<stop stop-color="white"/>
<stop offset="1" stop-color="#0B80BD"/>
</linearGradient>
<linearGradient id="paint5_linear_436_9125" x1="10.3971" y1="5.14565" x2="10.3971" y2="39.6483" gradientUnits="userSpaceOnUse">
<stop stop-color="#FFD8FC"/>
<stop offset="1" stop-color="#FF41F2"/>
</linearGradient>
</defs>
</svg>
